{
.appVersion = "3343";
.formatVersion = 3;
axes = (
{
name = Proc;
tag = PROC;
},
{
name = Weight;
tag = wght;
}
);
date = "2020-05-29 21:31:50 +0000";
familyName = "Work In Progress";
fontMaster = (
{
axesValues = (
0,
0
);
customParameters = (
{
name = typoAscender;
value = 750;
},
{
name = typoDescender;
value = -250;
},
{
name = typoLineGap;
value = 100;
},
{
name = winAscent;
value = 900;
},
{
name = winDescent;
value = 200;
},
{
name = hheaAscender;
value = 900;
},
{
name = hheaDescender;
value = -200;
},
{
name = strikeoutPosition;
value = 300;
},
{
name = strikeoutSize;
value = 0;
}
);
id = m01;
metricValues = (
{
pos = 750;
},
{
pos = 750;
},
{
pos = 500;
},
{
},
{
pos = -250;
},
{
}
);
name = Regular;
},
{
axesValues = (
100,
0
);
customParameters = (
{
name = typoAscender;
value = 750;
},
{
name = typoDescender;
value = -250;
},
{
name = typoLineGap;
value = 100;
},
{
name = winAscent;
value = 900;
},
{
name = winDescent;
value = 200;
},
{
name = hheaAscender;
value = 900;
},
{
name = hheaDescender;
value = -200;
},
{
name = strikeoutPosition;
value = 300;
},
{
name = strikeoutSize;
value = 0;
}
);
id = "A1660191-6A08-4E85-BAD2-45B604C2F82B";
metricValues = (
{
pos = 750;
},
{
pos = 750;
},
{
pos = 500;
},
{
},
{
pos = -250;
},
{
}
);
name = "proc=100";
},
{
axesValues = (
0,
100
);
customParameters = (
{
name = typoAscender;
value = 750;
},
{
name = typoDescender;
value = -250;
},
{
name = typoLineGap;
value = 100;
},
{
name = winAscent;
value = 900;
},
{
name = winDescent;
value = 200;
},
{
name = hheaAscender;
value = 900;
},
{
name = hheaDescender;
value = -200;
},
{
name = strikeoutPosition;
value = 300;
},
{
name = strikeoutSize;
value = 0;
}
);
id = "1AEC2AE6-7FD3-416F-AB62-5405269463F6";
metricValues = (
{
pos = 750;
},
{
pos = 750;
},
{
pos = 500;
},
{
},
{
pos = -250;
},
{
}
);
name = Thin;
},
{
axesValues = (
100,
100
);
customParameters = (
{
name = typoAscender;
value = 750;
},
{
name = typoDescender;
value = -250;
},
{
name = typoLineGap;

glyphs = (
{
glyphname = A;
kernLeft = A;
kernRight = A;
lastChange = "2025-10-03 19:41:15 +0000";
layers = (
{
layerId = m01;
shapes = (
{
closed = 1;
nodes = (
(343,394,l),
(458,445,l),
(372,679,l),
(258,628,l)
);
},
{
closed = 1;
nodes = (
(431,169,l),
(546,220,l),
(460,454,l),
(346,403,l)
);
},
{
closed = 1;
nodes = (
(499,-6,l),
(614,45,l),
(528,279,l),
(414,228,l)
);
},
{
closed = 1;
nodes = (
(251,685,l),
(165,451,l),
(274,400,l),
(359,634,l)
);
},
{
closed = 1;
nodes = (
(168,460,l),
(82,226,l),
(191,175,l),
(276,409,l)
);
},
{
closed = 1;
nodes = (
(95,285,l),
(9,51,l),
(118,0,l),
(203,234,l)
);
},
{
closed = 1;
nodes = (
(142,190,l),
(457,190,l),
(457,310,l),
(142,310,l)
);
}
);
width = 616;
},
{
layerId = "A1660191-6A08-4E85-BAD2-45B604C2F82B";
shapes = (
{
closed = 1;
nodes = (
(390,308,l),
(492,355,l),
(462,446,l),
(357,395,l)
);
},
{
closed = 1;
nodes = (
(432,173,l),
(543,220,l),
(459,451,l),
(350,402,l)
);
},
{
closed = 1;
nodes = (
(434,180,l),
(536,232,l),
(497,318,l),
(396,269,l)
);
},
{
closed = 1;
nodes = (
(251,680,l),
(167,450,l),
(274,405,l),
(357,634,l)
);
},
{
closed = 1;
nodes = (
(104,272,l),
(61,186,l),
(162,135,l),
(200,223,l)
);
},
{
closed = 1;
nodes = (
(95,280,l),
(11,50,l),
(118,5,l),
(201,234,l)
);
},
{
closed = 1;
nodes = (
(144,192,l),
(455,192,l),
(455,308,l),
(144,308,l)
);
}
);
width = 616;
},
{
layerId = "1AEC2AE6-7FD3-416F-AB62-5405269463F6";
shapes = (
{
closed = 1;
nodes = (
(370,458,l),
(398,470,l),
(345,615,l),
(318,603,l)
);
},
{
closed = 1;
nodes = (
(458,233,l),
(486,245,l),
(433,390,l),
(406,378,l)
);
},
{
closed = 1;
nodes = (
(526,58,l),
(554,70,l),
(501,215,l),
(474,203,l)
);
},
{
closed = 1;
nodes = (
(277,620,l),
(224,475,l),
(248,465,l),
(300,610,l)
);
},
{
closed = 1;
nodes = (
(194,395,l),
(141,250,l),
(165,240,l),
(217,385,l)
);
},
{
closed = 1;
nodes = (
(121,220,l),
(68,75,l),
(92,65,l),
(144,210,l)
);
},
{
closed = 1;
nodes = (
(189,237,l),
(410,237,l),
(410,263,l),
(189,263,l)
);
}
);
width = 616;
},
{
layerId = "B466964A-22F3-4054-88BE-B6989E35C817";
shapes = (
{
closed = 1;
nodes = (
(411,367,l),
(437,379,l),
(435,385,l),
(408,373,l)
);
},
{
closed = 1;
nodes = (
(458,233,l),
(486,245,l),
(433,390,l),
(406,378,l)
);
},
{
closed = 1;
nodes = (
(457,240,l),
(483,252,l),
(479,259,l),
(454,247,l)
);
},
{
closed = 1;
nodes = (
(277,620,l),
(224,475,l),
(248,465,l),
(300,610,l)
);
},
{
closed = 1;
nodes = (
(120,213,l),
(115,205,l),
(136,195,l),
(140,203,l)
);
},
{
closed = 1;
nodes = (
(121,220,l),
(68,75,l),
(92,65,l),
(144,210,l)
);
},
{
closed = 1;
nodes = (
(189,237,l),
(410,237,l),
(410,263,l),
(189,263,l)
);
}
);
width = 616;
}
);
note = A;
unicode = (65,97);
},
{
glyphname = B;
kernRight = B;
lastChange = "2025-10-03 19:41:15 +0000";
layers = (
{
layerId = m01;
shapes = (
{
closed = 1;
nodes = (
(86,566,l),
(459,566,l),
(459,680,l),
(86,680,l)
);
},
{
closed = 1;
nodes = (
(204,233,l),
(204,606,l),
(90,606,l),
(90,233,l)
);
},
{
closed = 1;
nodes = (
(200,3,l),
(200,376,l),
(86,376,l),
(86,3,l)
);
},
{
closed = 1;
nodes = (
(91,0,l),
(464,0,l),
(464,114,l),
(91,114,l)
);
},
{
closed = 1;
nodes = (
(94,291,l),
(467,291,l),
(467,405,l),
(94,405,l)
);
},
{
closed = 1;
nodes = (
(384,612,l),
(507,489,l),
(587,568,l),
(464,692,l)
);
},
{
closed = 1;
nodes = (
(573,409,l),
(493,489,l),
(369,368,l),
(450,287,l)
);
},
{
closed = 1;
nodes = (
(579,404,l),
(579,568,l),
(465,568,l),
(465,404,l)
);
},
{
closed = 1;
nodes = (
(406,307,l),
(516,198,l),
(596,278,l),
(487,388,l)
);
},
{
closed = 1;
nodes = (
(584,116,l),
(504,195,l),
(381,74,l),
(461,-6,l)
);
},
{
closed = 1;
nodes = (
(595,115,l),
(595,279,l),
(481,279,l),
(481,115,l)
);
}
);
width = 640;
},
{
layerId = "A1660191-6A08-4E85-BAD2-45B604C2F82B";
shapes = (
{
closed = 1;
nodes = (
(86,566,l),
(459,566,l),
(459,680,l),
(86,680,l)
);
},
{
closed = 1;
nodes = (
(204,233,l),
(204,606,l),
(90,606,l),
(90,233,l)
);
},
{
closed = 1;
nodes = (
(207,3,l),
(214,110,l),
(100,110,l),
(93,3,l)
);
},
{
closed = 1;
nodes = (
(91,0,l),
(464,0,l),
(464,114,l),
(91,114,l)
);
},
{
closed = 1;
nodes = (
(94,291,l),
(194,291,l),
(194,405,l),
(94,405,l)
);
},
{
closed = 1;
nodes = (
(331,602,l),
(354,577,l),
(435,657,l),
(412,682,l)
);
},
{
closed = 1;
nodes = (
(572,408,l),
(495,490,l),
(369,369,l),
(450,288,l)
);
},
{
closed = 1;
nodes = (
(547,388,l),
(548,413,l),
(434,413,l),
(433,388,l)
);
},
{
closed = 1;
nodes = (
(489,180,l),
(512,165,l),
(586,239,l),
(577,268,l)
);
},
{
closed = 1;
nodes = (
(586,151,l),
(506,231,l),
(493,217,l),
(573,137,l)
);
},
{
closed = 1;
nodes = (
(595,115,l),
(595,279,l),
(481,279,l),
(481,115,l)
);
}
);
width = 640;
},
{
layerId = "1AEC2AE6-7FD3-416F-AB62-5405269463F6";
shapes = (
{
closed = 1;
nodes = (
(131,611,l),
(414,611,l),
(414,635,l),
(131,635,l)
);
},
{
closed = 1;
nodes = (
(159,278,l),
(159,561,l),
(135,561,l),
(135,278,l)
);
},
{
closed = 1;
nodes = (
(155,48,l),
(155,331,l),
(131,331,l),
(131,48,l)
);
},
{
closed = 1;
nodes = (
(136,45,l),
(419,45,l),
(419,69,l),
(136,69,l)
);
},
{
closed = 1;
nodes = (
(139,336,l),
(422,336,l),
(422,360,l),
(139,360,l)
);
},
{
closed = 1;
nodes = (
(448,612,l),
(507,552,l),
(523,568,l),
(464,628,l)
);
},
{
closed = 1;
nodes = (
(509,409,l),
(493,426,l),
(433,368,l),
(450,351,l)
);
},
{
closed = 1;
nodes = (
(534,449,l),
(534,523,l),
(510,523,l),
(510,449,l)
);
},
{
closed = 1;
nodes = (
(470,307,l),
(516,262,l),
(532,278,l),
(487,324,l)
);
},
{
closed = 1;
nodes = (
(520,116,l),
(504,132,l),
(445,74,l),
(461,58,l)
);
},
{
closed = 1;
nodes = (
(550,160,l),
(550,234,l),
(526,234,l),
(526,160,l)
);
}
);
width = 640;
},
{
layerId = "B466964A-22F3-4054-88BE-B6989E35C817";
shapes = (
{
closed = 1;
nodes = (
(131,611,l),
(414,611,l),
(414,635,l),
(131,635,l)
);
},
{
closed = 1;
nodes = (
(159,278,l),
(159,561,l),
(135,561,l),
(135,278,l)
);
},
{
closed = 1;
nodes = (
(165,48,l),
(166,65,l),
(142,65,l),
(141,48,l)
);
},
{
closed = 1;
nodes = (
(136,45,l),
(419,45,l),
(419,69,l),
(136,69,l)
);
},
{
closed = 1;
nodes = (
(139,336,l),
(149,336,l),
(149,360,l),
(139,360,l)
);
},
{
closed = 1;
nodes = (
(390,617,l),
(394,614,l),
(410,630,l),
(406,633,l)
);
},
{
closed = 1;
nodes = (
(509,409,l),
(493,426,l),
(433,368,l),
(450,351,l)
);
},
{
closed = 1;
nodes = (
(502,404,l),
(502,410,l),
(478,410,l),
(478,404,l)
);
},
{
closed = 1;
nodes = (
(527,211,l),
(532,206,l),
(548,222,l),
(544,228,l)
);
},
{
closed = 1;
nodes = (
(549,170,l),
(533,186,l),
(526,180,l),
(542,164,l)
);
},
{
closed = 1;
nodes = (
(550,160,l),
(550,234,l),
(526,234,l),
(526,160,l)
);
}
);
width = 640;
}
);
note = B;
unicode = (66,98);
},
{
glyphname = C;
kernLeft = C;
kernRight = C;
lastChange = "2025-10-03 19:41:15 +0000";
layers = (
{
layerId = m01;
shapes = (
{
closed = 1;
nodes = (
(548,385,l),
(648,432,l),
(553,638,l),
(450,589,l)
);
},
{
closed = 1;
nodes = (
(550,49,l),
(645,255,l),
(545,302,l),
(447,98,l)
);
},
{
closed = 1;
nodes = (
(520,525,l),
(549,632,l),
(329,692,l),
(301,581,l)
);
},
{
closed = 1;
nodes = (
(365,596,l),
(319,697,l),
(111,601,l),
(161,498,l)
);
},
{
closed = 1;
nodes = (
(222,570,l),
(115,600,l),
(55,379,l),
(166,351,l)
);
},
{
closed = 1;
nodes = (
(343,-27,l),
(563,33,l),
(534,140,l),
(315,84,l)
);
},
{
closed = 1;
nodes = (
(120,80,l),
(328,-16,l),
(374,85,l),
(170,183,l)
);
},
{
closed = 1;
nodes = (
(65,309,l),
(125,88,l),
(232,118,l),
(176,337,l)
);
},
{
closed = 1;
nodes = (
(166,382,l),
(55,383,l),
(54,295,l),
(168,295,l)
);
}
);
width = 682;
},
{
layerId = "A1660191-6A08-4E85-BAD2-45B604C2F82B";
shapes = (
{
closed = 1;
nodes = (
(445,563,l),
(529,602,l),
(531,636,l),
(408,578,l)
);
},
{
closed = 1;
nodes = (
(560,49,l),
(654,255,l),
(555,302,l),
(457,98,l)
);
},
{
closed = 1;
nodes = (
(519,536,l),
(550,641,l),
(327,703,l),
(303,590,l)
);
},
{
closed = 1;
nodes = (
(400,596,l),
(359,687,l),
(336,682,l),
(393,563,l)
);
},
{
closed = 1;
nodes = (
(176,382,l),
(86,405,l),
(66,313,l),
(176,284,l)
);
},
{
closed = 1;
nodes = (
(290,5,l),
(333,4,l),
(302,109,l),
(262,127,l)
);
},
{
closed = 1;
nodes = (
(121,80,l),
(328,-16,l),
(374,86,l),
(170,183,l)
);
},
{
closed = 1;
nodes = (
(136,97,l),
(167,51,l),
(266,86,l),
(243,145,l)
);
},
{
closed = 1;
nodes = (
(179,400,l),
(66,405,l),
(60,274,l),
(173,259,l)
);
}
);
width = 682;
},
{
layerId = "1AEC2AE6-7FD3-416F-AB62-5405269463F6";
shapes = (
{
closed = 1;
nodes = (
(569,445,l),
(588,454,l),
(531,578,l),
(510,568,l)
);
},
{
closed = 1;
nodes = (
(538,109,l),
(595,233,l),
(576,242,l),
(517,119,l)
);
},
{
closed = 1;
nodes = (
(488,590,l),
(494,610,l),
(361,647,l),
(356,623,l)
);
},
{
closed = 1;
nodes = (
(306,617,l),
(297,637,l),
(172,579,l),
(182,558,l)
);
},
{
closed = 1;
nodes = (
(168,539,l),
(147,544,l),
(110,411,l),
(134,406,l)
);
},
{
closed = 1;
nodes = (
(365,32,l),
(498,69,l),
(492,89,l),
(360,56,l)
);
},
{
closed = 1;
nodes = (
(181,102,l),
(306,44,l),
(315,64,l),
(191,123,l)
);
},
{
closed = 1;
nodes = (
(112,258,l),
(149,125,l),
(170,130,l),
(136,263,l)
);
},
{
closed = 1;
nodes = (
(132,357,l),
(109,358,l),
(107,313,l),
(130,310,l)
);
}
);
width = 682;
},
{
layerId = "B466964A-22F3-4054-88BE-B6989E35C817";
shapes = (
{
closed = 1;
nodes = (
(471,596,l),
(490,605,l),
(489,610,l),
(468,600,l)
);
},
{
closed = 1;
nodes = (
(538,109,l),
(595,233,l),
(576,242,l),
(517,119,l)
);
},
{
closed = 1;
nodes = (
(488,590,l),
(494,610,l),
(361,647,l),
(356,623,l)
);
},
{
closed = 1;
nodes = (
(376,623,l),
(367,643,l),
(363,641,l),
(373,620,l)
);
},
{
closed = 1;
nodes = (
(131,347,l),
(112,352,l),
(109,345,l),
(131,340,l)
);
},
{
closed = 1;
nodes = (
(298,49,l),
(305,49,l),
(299,69,l),
(293,70,l)
);
},
{
closed = 1;
nodes = (
(181,102,l),
(306,44,l),
(315,64,l),
(191,123,l)
);
},
{
closed = 1;
nodes = (
(185,105,l),
(187,102,l),
(208,107,l),
(209,110,l)
);
},
{
closed = 1;
nodes = (
(132,357,l),
(109,358,l),
(107,313,l),
(130,310,l)
);
}
);
width = 682;
}
);
note = C;
unicode = (67,99);
},
{
glyphname = D;
kernRight = D;
lastChange = "2025-10-03 19:41:15 +0000";
layers = (
{
layerId = m01;
shapes = (
{
closed = 1;
nodes = (
(89,669,l),
(89,420,l),
(199,415,l),
(199,664,l)
);
},
{
closed = 1;
nodes = (
(89,433,l),
(89,184,l),
(199,179,l),
(199,428,l)
);
},
{
closed = 1;
nodes = (
(95,250,l),
(95,1,l),
(205,-4,l),
(205,245,l)
);
},
{
closed = 1;
nodes = (
(511,466,l),
(511,217,l),
(621,212,l),
(621,461,l)
);
},
{
closed = 1;
nodes = (
(372,578,l),
(548,401,l),
(630,476,l),
(453,652,l)
);
},
{
closed = 1;
nodes = (
(179,565,l),
(428,542,l),
(442,652,l),
(194,673,l)
);
},
{
closed = 1;
nodes = (
(610,190,l),
(528,265,l),
(352,88,l),
(433,14,l)
);
},
{
closed = 1;
nodes = (
(422,14,l),
(408,124,l),
(159,101,l),
(174,-7,l)
);
}
);
width = 677;
},
{
layerId = "A1660191-6A08-4E85-BAD2-45B604C2F82B";
shapes = (
{
closed = 1;
nodes = (
(89,669,l),
(89,420,l),
(199,415,l),
(199,664,l)
);
},
{
closed = 1;
nodes = (
(89,520,l),
(89,426,l),
(199,421,l),
(199,515,l)
);
},
{
closed = 1;
nodes = (
(95,230,l),
(95,-19,l),
(205,-24,l),
(205,225,l)
);
},
{
closed = 1;
nodes = (
(511,466,l),
(511,217,l),
(621,212,l),
(621,461,l)
);
},
{
closed = 1;
nodes = (
(529,360,l),
(529,340,l),
(619,419,l),
(609,435,l)
);
},
{
closed = 1;
nodes = (
(91,548,l),
(188,548,l),
(199,658,l),
(102,658,l)
);
},
{
closed = 1;
nodes = (
(613,234,l),
(513,322,l),
(519,305,l),
(579,235,l)
);
},
{
closed = 1;
nodes = (
(207,-11,l),
(196,99,l),
(93,99,l),
(109,-11,l)
);
}
);
width = 677;
},
{
layerId = "1AEC2AE6-7FD3-416F-AB62-5405269463F6";
shapes = (
{
closed = 1;
nodes = (
(134,622,l),
(134,463,l),
(154,462,l),
(154,621,l)
);
},
{
closed = 1;
nodes = (
(134,396,l),
(134,237,l),
(154,236,l),
(154,395,l)
);
},
{
closed = 1;
nodes = (
(140,183,l),
(140,24,l),
(160,23,l),
(160,182,l)
);
},
{
closed = 1;
nodes = (
(556,419,l),
(556,260,l),
(576,259,l),
(576,418,l)
);
},
{
closed = 1;
nodes = (
(437,576,l),
(549,463,l),
(565,477,l),
(452,590,l)
);
},
{
closed = 1;
nodes = (
(230,605,l),
(389,591,l),
(391,611,l),
(233,625,l)
);
},
{
closed = 1;
nodes = (
(545,189,l),
(529,203,l),
(417,90,l),
(432,76,l)
);
},
{
closed = 1;
nodes = (
(371,55,l),
(369,75,l),
(210,61,l),
(213,41,l)
);
}
);
width = 677;
},
{
layerId = "B466964A-22F3-4054-88BE-B6989E35C817";
shapes = (
{
closed = 1;
nodes = (
(134,622,l),
(134,463,l),
(154,462,l),
(154,621,l)
);
},
{
closed = 1;
nodes = (
(134,473,l),
(134,469,l),
(154,468,l),
(154,472,l)
);
},
{
closed = 1;
nodes = (
(140,183,l),
(140,24,l),
(160,23,l),
(160,182,l)
);
},
{
closed = 1;
nodes = (
(556,419,l),
(556,260,l),
(576,259,l),
(576,418,l)
);
},
{
closed = 1;
nodes = (
(557,397,l),
(560,390,l),
(576,404,l),
(572,411,l)
);
},
{
closed = 1;
nodes = (
(138,593,l),
(147,593,l),
(149,613,l),
(141,613,l)
);
},
{
closed = 1;
nodes = (
(575,267,l),
(559,281,l),
(556,277,l),
(568,263,l)
);
},
{
closed = 1;
nodes = (
(157,34,l),
(155,54,l),
(145,54,l),
(148,34,l)
);
}
);
width = 677;
}
);
note = D;
unicode = (68,100);
},
{
glyphname = E;
kernRight = E;
lastChange = "2025-10-03 19:41:15 +0000";
layers = (
{
layerId = m01;
shapes = (
{
closed = 1;
nodes = (
(91,680,l),
(91,431,l),
(201,426,l),
(201,675,l)
);
},
{
closed = 1;
nodes = (
(91,437,l),
(91,188,l),
(201,183,l),
(201,432,l)
);
},
{
closed = 1;
nodes = (
(91,195,l),
(91,1,l),
(201,-4,l),
(201,190,l)
);
},
{
closed = 1;
nodes = (
(501,682,l),
(194,683,l),
(189,573,l),
(496,572,l)
);
},
{
closed = 1;
nodes = (
(501,426,l),
(194,427,l),
(189,317,l),
(496,316,l)
);
},
{
closed = 1;
nodes = (
(501,109,l),
(194,110,l),
(189,0,l),
(496,-1,l)
);
}
);
width = 558;
},
{
layerId = "A1660191-6A08-4E85-BAD2-45B604C2F82B";
shapes = (
{
closed = 1;
nodes = (
(92,432,l),
(91,334,l),
(199,329,l),
(202,427,l)
);
},
{
closed = 1;
nodes = (
(91,437,l),
(91,188,l),
(201,183,l),
(201,432,l)
);
},
{
closed = 1;
nodes = (
(91,291,l),
(91,194,l),
(201,189,l),
(201,286,l)
);
},
{
closed = 1;
nodes = (
(501,682,l),
(194,683,l),
(189,573,l),
(496,572,l)
);
},
{
closed = 1;
nodes = (
(197,412,l),
(101,426,l),
(95,315,l),
(191,301,l)
);
},
{
closed = 1;
nodes = (
(501,109,l),
(194,110,l),
(189,0,l),
(496,-1,l)
);
}
);
width = 558;
},
{
layerId = "1AEC2AE6-7FD3-416F-AB62-5405269463F6";
shapes = (
{
closed = 1;
nodes = (
(136,633,l),
(136,474,l),
(156,473,l),
(156,632,l)
);
},
{
closed = 1;
nodes = (
(136,390,l),
(136,231,l),
(156,230,l),
(156,389,l)
);
},
{
closed = 1;
nodes = (
(136,148,l),
(136,44,l),
(156,43,l),
(156,147,l)
);
},
{
closed = 1;
nodes = (
(454,637,l),
(237,638,l),
(236,618,l),
(453,617,l)
);
},
{
closed = 1;
nodes = (
(454,381,l),
(237,382,l),
(236,362,l),
(453,361,l)
);
},
{
closed = 1;
nodes = (
(454,64,l),
(237,65,l),
(236,45,l),
(453,44,l)
);
}
);
width = 558;
},
{
layerId = "B466964A-22F3-4054-88BE-B6989E35C817";
shapes = (
{
closed = 1;
nodes = (
(137,385,l),
(136,377,l),
(156,376,l),
(157,384,l)
);
},
{
closed = 1;
nodes = (
(136,390,l),
(136,231,l),
(156,230,l),
(156,389,l)
);
},
{
closed = 1;
nodes = (
(136,244,l),
(136,237,l),
(156,236,l),
(156,243,l)
);
},
{
closed = 1;
nodes = (
(454,637,l),
(237,638,l),
(236,618,l),
(453,617,l)
);
},
{
closed = 1;
nodes = (
(150,373,l),
(143,374,l),
(142,354,l),
(149,353,l)
);
},
{
closed = 1;
nodes = (
(454,64,l),
(237,65,l),
(236,45,l),
(453,44,l)
);
}
);
width = 558;
}
);
note = E;
unicode = (69,101);
},
{
glyphname = F;
kernRight = F;
lastChange = "2025-10-03 19:41:15 +0000";
layers = (
{
layerId = m01;
shapes = (
{
closed = 1;
nodes = (
(87,678,l),
(95,429,l),
(205,428,l),
(197,677,l)
);
},
{
closed = 1;
nodes = (
(89,443,l),
(97,194,l),
(207,193,l),
(199,442,l)
);
},
{
closed = 1;
nodes = (
(93,258,l),
(101,9,l),
(211,8,l),
(203,257,l)
);
},
{
closed = 1;
nodes = (
(488,676,l),
(197,676,l),
(196,566,l),
(487,566,l)
);
},
{
closed = 1;
nodes = (
(461,426,l),
(170,426,l),
(169,316,l),
(460,316,l)
);
}
);
width = 521;
},
{
layerId = "A1660191-6A08-4E85-BAD2-45B604C2F82B";
shapes = (
{
closed = 1;
nodes = (
(86,680,l),
(96,431,l),
(206,426,l),
(196,675,l)
);
},
{
closed = 1;
nodes = (
(94,539,l),
(94,442,l),
(204,437,l),
(204,534,l)
);
},
{
closed = 1;
nodes = (
(92,260,l),
(102,11,l),
(212,6,l),
(202,255,l)
);
},
{
closed = 1;
nodes = (
(192,670,l),
(96,670,l),
(91,560,l),
(187,560,l)
);
},
{
closed = 1;
nodes = (
(463,426,l),
(172,426,l),
(167,316,l),
(458,316,l)
);
}
);
width = 521;
},
{
layerId = "1AEC2AE6-7FD3-416F-AB62-5405269463F6";
shapes = (
{
closed = 1;
nodes = (
(133,633,l),
(139,474,l),
(159,473,l),
(153,632,l)
);
},
{
closed = 1;
nodes = (
(135,428,l),
(141,269,l),
(161,268,l),
(155,427,l)
);
},
{
closed = 1;
nodes = (
(139,213,l),
(145,54,l),
(165,53,l),
(159,212,l)
);
},
{
closed = 1;
nodes = (
(443,631,l),
(242,631,l),
(241,611,l),
(442,611,l)
);
},
{
closed = 1;
nodes = (
(416,381,l),
(215,381,l),
(214,361,l),
(415,361,l)
);
}
);
width = 521;
},
{
layerId = "B466964A-22F3-4054-88BE-B6989E35C817";
shapes = (
{
closed = 1;
nodes = (
(133,633,l),
(139,474,l),
(159,473,l),
(153,632,l)
);
},
{
closed = 1;
nodes = (
(139,492,l),
(139,485,l),
(159,484,l),
(159,491,l)
);
},
{
closed = 1;
nodes = (
(139,213,l),
(145,54,l),
(165,53,l),
(159,212,l)
);
},
{
closed = 1;
nodes = (
(145,625,l),
(139,625,l),
(138,605,l),
(144,605,l)
);
},
{
closed = 1;
nodes = (
(416,381,l),
(215,381,l),
(214,361,l),
(415,361,l)
);
}
);
width = 521;
}
);
note = F;
unicode = (70,102);
},
{
glyphname = G;
kernLeft = C;
kernRight = G;
lastChange = "2025-10-03 19:41:15 +0000";
layers = (
{
layerId = m01;
shapes = (
{
closed = 1;
nodes = (
(513,473,l),
(613,520,l),
(553,638,l),
(450,589,l)
);
},
{
closed = 1;
nodes = (
(550,49,l),
(645,255,l),
(545,302,l),
(447,98,l)
);
},
{
closed = 1;
nodes = (
(520,525,l),
(549,632,l),
(329,692,l),
(301,581,l)
);
},
{
closed = 1;
nodes = (
(374,594,l),
(328,695,l),
(120,599,l),
(170,496,l)
);
},
{
closed = 1;
nodes = (
(230,562,l),
(126,602,l),
(47,387,l),
(155,349,l)
);
},
{
closed = 1;
nodes = (
(343,-23,l),
(563,37,l),
(534,144,l),
(315,88,l)
);
},
{
closed = 1;
nodes = (
(114,77,l),
(328,-26,l),
(374,75,l),
(164,180,l)
);
},
{
closed = 1;
nodes = (
(52,295,l),
(112,74,l),
(219,104,l),
(163,323,l)
);
},
{
closed = 1;
nodes = (
(166,382,l),
(55,383,l),
(54,295,l),
(168,295,l)
);
},
{
closed = 1;
nodes = (
(633,252,l),
(633,362,l),
(358,363,l),
(359,249,l)
);
}
);
width = 697;
},
{
layerId = "A1660191-6A08-4E85-BAD2-45B604C2F82B";
shapes = (
{
closed = 1;
nodes = (
(432,551,l),
(540,600,l),
(520,627,l),
(412,578,l)
);
},
{
closed = 1;
nodes = (
(550,49,l),
(644,255,l),
(545,302,l),
(447,98,l)
);
},
{
closed = 1;
nodes = (
(519,526,l),
(550,631,l),
(327,693,l),
(303,580,l)
);
},
{
closed = 1;
nodes = (
(415,580,l),
(371,668,l),
(332,677,l),
(388,559,l)
);
},
{
closed = 1;
nodes = (
(230,562,l),
(125,602,l),
(47,387,l),
(154,348,l)
);
},
{
closed = 1;
nodes = (
(529,77,l),
(560,87,l),
(524,199,l),
(504,183,l)
);
},
{
closed = 1;
nodes = (
(117,102,l),
(123,100,l),
(175,203,l),
(175,213,l)
);
},
{
closed = 1;
nodes = (
(51,297,l),
(112,76,l),
(220,102,l),
(164,321,l)
);
},
{
closed = 1;
nodes = (
(194,461,l),
(74,467,l),
(61,402,l),
(166,402,l)
);
},
{
closed = 1;
nodes = (
(633,253,l),
(633,362,l),
(356,363,l),
(361,248,l)
);
}
);
width = 697;
},
{
layerId = "1AEC2AE6-7FD3-416F-AB62-5405269463F6";
shapes = (
{
closed = 1;
nodes = (
(532,532,l),
(552,541,l),
(533,579,l),
(512,569,l)
);
},
{
closed = 1;
nodes = (
(528,109,l),
(585,233,l),
(566,242,l),
(507,119,l)
);
},
{
closed = 1;
nodes = (
(488,580,l),
(494,600,l),
(361,637,l),
(356,613,l)
);
},
{
closed = 1;
nodes = (
(315,615,l),
(306,635,l),
(181,577,l),
(191,556,l)
);
},
{
closed = 1;
nodes = (
(173,536,l),
(152,544,l),
(105,414,l),
(127,406,l)
);
},
{
closed = 1;
nodes = (
(375,32,l),
(508,69,l),
(502,89,l),
(370,56,l)
);
},
{
closed = 1;
nodes = (
(174,98,l),
(306,34,l),
(315,54,l),
(185,119,l)
);
},
{
closed = 1;
nodes = (
(107,263,l),
(144,130,l),
(165,135,l),
(131,268,l)
);
},
{
closed = 1;
nodes = (
(120,359,l),
(97,360,l),
(97,315,l),
(120,315,l)
);
},
{
closed = 1;
nodes = (
(588,297,l),
(588,317,l),
(403,318,l),
(404,294,l)
);
}
);
width = 697;
},
{
layerId = "B466964A-22F3-4054-88BE-B6989E35C817";
shapes = (
{
closed = 1;
nodes = (
(471,587,l),
(491,596,l),
(484,603,l),
(464,594,l)
);
},
{
closed = 1;
nodes = (
(528,109,l),
(585,233,l),
(566,242,l),
(507,119,l)
);
},
{
closed = 1;
nodes = (
(488,580,l),
(494,600,l),
(361,637,l),
(356,613,l)
);
},
{
closed = 1;
nodes = (
(388,614,l),
(379,632,l),
(369,631,l),
(379,610,l)
);
},
{
closed = 1;
nodes = (
(173,536,l),
(152,544,l),
(105,414,l),
(127,406,l)
);
},
{
closed = 1;
nodes = (
(526,118,l),
(532,119,l),
(525,141,l),
(521,140,l)
);
},
{
closed = 1;
nodes = (
(143,135,l),
(151,133,l),
(160,153,l),
(154,156,l)
);
},
{
closed = 1;
nodes = (
(107,263,l),
(144,130,l),
(165,135,l),
(131,268,l)
);
},
{
closed = 1;
nodes = (
(131,419,l),
(108,420,l),
(107,414,l),
(129,414,l)
);
},
{
closed = 1;
nodes = (
(588,297,l),
(588,317,l),
(403,318,l),
(404,294,l)
);
}
);
width = 697;
}
);
note = G;
unicode = (71,103);
},
{
glyphname = H;
lastChange = "2025-10-03 19:41:15 +0000";
layers = (
{
layerId = m01;
shapes = (
{
closed = 1;
nodes = (
(92,681,l),
(91,431,l),
(202,426,l),
(202,676,l)
);
},
{
closed = 1;
nodes = (
(92,436,l),
(91,186,l),
(202,181,l),
(202,431,l)
);
},
{
closed = 1;
nodes = (
(95,257,l),
(94,7,l),
(205,2,l),
(205,252,l)
);
},
{
closed = 1;
nodes = (
(477,679,l),
(476,429,l),
(587,424,l),
(587,674,l)
);
},
{
closed = 1;
nodes = (
(477,434,l),
(476,184,l),
(587,179,l),
(587,429,l)
);
},
{
closed = 1;
nodes = (
(480,255,l),
(479,5,l),
(590,0,l),
(590,250,l)
);
},
{
closed = 1;
nodes = (
(491,411,l),
(201,410,l),
(196,299,l),
(486,301,l)
);
}
);
width = 676;
},
{
layerId = "A1660191-6A08-4E85-BAD2-45B604C2F82B";
shapes = (
{
closed = 1;
nodes = (
(92,681,l),
(91,431,l),
(202,426,l),
(202,676,l)
);
},
{
closed = 1;
nodes = (
(95,249,l),
(95,151,l),
(205,146,l),
(205,244,l)
);
},
{
closed = 1;
nodes = (
(95,257,l),
(94,7,l),
(205,2,l),
(205,252,l)
);
},
{
closed = 1;
nodes = (
(480,457,l),
(480,363,l),
(590,358,l),
(590,452,l)
);
},
{
closed = 1;
nodes = (
(480,464,l),
(479,214,l),
(590,209,l),
(590,459,l)
);
},
{
closed = 1;
nodes = (
(486,312,l),
(483,214,l),
(596,209,l),
(590,307,l)
);
},
{
closed = 1;
nodes = (
(491,411,l),
(201,410,l),
(196,299,l),
(486,301,l)
);
}
);
width = 676;
},
{
layerId = "1AEC2AE6-7FD3-416F-AB62-5405269463F6";
shapes = (
{
closed = 1;
nodes = (
(137,634,l),
(136,474,l),
(157,473,l),
(157,633,l)
);
},
{
closed = 1;
nodes = (
(140,419,l),
(139,259,l),
(160,258,l),
(160,418,l)
);
},
{
closed = 1;
nodes = (
(140,210,l),
(139,50,l),
(160,49,l),
(160,209,l)
);
},
{
closed = 1;
nodes = (
(522,632,l),
(521,472,l),
(542,471,l),
(542,631,l)
);
},
{
closed = 1;
nodes = (
(525,417,l),
(524,257,l),
(545,256,l),
(545,416,l)
);
},
{
closed = 1;
nodes = (
(525,208,l),
(524,48,l),
(545,47,l),
(545,207,l)
);
},
{
closed = 1;
nodes = (
(444,366,l),
(244,365,l),
(243,344,l),
(443,346,l)
);
}
);
width = 676;
},
{
layerId = "B466964A-22F3-4054-88BE-B6989E35C817";
shapes = (
{
closed = 1;
nodes = (
(137,634,l),
(136,474,l),
(157,473,l),
(157,633,l)
);
},
{
closed = 1;
nodes = (
(140,202,l),
(140,194,l),
(160,193,l),
(160,201,l)
);
},
{
closed = 1;
nodes = (
(140,210,l),
(139,50,l),
(160,49,l),
(160,209,l)
);
},
{
closed = 1;
nodes = (
(525,410,l),
(525,406,l),
(545,405,l),
(545,409,l)
);
},
{
closed = 1;
nodes = (
(525,417,l),
(524,257,l),
(545,256,l),
(545,416,l)
);
},
{
closed = 1;
nodes = (
(525,265,l),
(524,257,l),
(551,256,l),
(545,264,l)
);
},
{
closed = 1;
nodes = (
(444,366,l),
(244,365,l),
(243,344,l),
(443,346,l)
);
}
);
width = 676;
}
);
note = H;
unicode = (72,104);
},
{
glyphname = I;
lastChange = "2025-10-03 19:41:15 +0000";
layers = (
{
layerId = m01;
shapes = (
{
closed = 1;
nodes = (
(89,683,l),
(88,433,l),
(205,428,l),
(205,679,l)
);
},
{
closed = 1;
nodes = (
(93,434,l),
(92,184,l),
(209,179,l),
(209,430,l)
);
},
{
closed = 1;
nodes = (
(89,254,l),
(88,4,l),
(205,-1,l),
(205,250,l)
);
}
);
width = 291;
},
{
layerId = "A1660191-6A08-4E85-BAD2-45B604C2F82B";
shapes = (
{
closed = 1;
nodes = (
(89,681,l),
(88,433,l),
(205,428,l),
(205,681,l)
);
},
{
closed = 1;
nodes = (
(94,544,l),
(88,446,l),
(205,441,l),
(205,544,l)
);
},
{
closed = 1;
nodes = (
(89,252,l),
(88,4,l),
(205,-1,l),
(205,252,l)
);
}
);
width = 291;
},
{
layerId = "1AEC2AE6-7FD3-416F-AB62-5405269463F6";
shapes = (
{
closed = 1;
nodes = (
(134,636,l),
(133,476,l),
(160,475,l),
(160,636,l)
);
},
{
closed = 1;
nodes = (
(138,427,l),
(137,267,l),
(164,266,l),
(164,427,l)
);
},
{
closed = 1;
nodes = (
(134,207,l),
(133,47,l),
(160,46,l),
(160,207,l)
);
}
);
width = 291;
},
{
layerId = "B466964A-22F3-4054-88BE-B6989E35C817";
shapes = (
{
closed = 1;
nodes = (
(134,636,l),
(133,476,l),
(160,475,l),
(160,636,l)
);
},
{
closed = 1;
nodes = (
(135,499,l),
(134,489,l),
(160,488,l),
(160,499,l)
);
},
{
closed = 1;
nodes = (
(134,207,l),
(133,47,l),
(160,46,l),
(160,207,l)
);
}
);
width = 291;
}
);
note = I;
unicode = (73,105);
},
{
glyphname = J;
kernLeft = J;
kernRight = J;
lastChange = "2025-10-03 19:41:15 +0000";
layers = (
{
layerId = m01;
shapes = (
{
closed = 1;
nodes = (
(265,679,l),
(264,429,l),
(381,424,l),
(381,675,l)
);
},
{
closed = 1;
nodes = (
(273,436,l),
(272,186,l),
(389,181,l),
(389,432,l)
);
},
{
closed = 1;
nodes = (
(21,292,l),
(20,77,l),
(133,75,l),
(137,288,l)
);
},
{
closed = 1;
nodes = (
(279,215,l),
(252,73,l),
(368,48,l),
(392,191,l)
);
},
{
closed = 1;
nodes = (
(285,151,l),
(165,69,l),
(230,-30,l),
(348,54,l)
);
},
{
closed = 1;
nodes = (
(253,81,l),
(72,160,l),
(19,55,l),
(201,-22,l)
);
}
);
width = 458;
},
{
layerId = "A1660191-6A08-4E85-BAD2-45B604C2F82B";
shapes = (
{
closed = 1;
nodes = (
(265,677,l),
(264,429,l),
(381,424,l),
(381,677,l)
);
},
{
closed = 1;
nodes = (
(265,532,l),
(270,437,l),
(380,432,l),
(380,534,l)
);
},
{
closed = 1;
nodes = (
(21,290,l),
(20,76,l),
(133,76,l),
(137,290,l)
);
},
{
closed = 1;
nodes = (
(224,96,l),
(181,78,l),
(327,45,l),
(316,78,l)
);
},
{
closed = 1;
nodes = (
(284,151,l),
(165,69,l),
(230,-30,l),
(349,55,l)
);
},
{
closed = 1;
nodes = (
(123,186,l),
(83,219,l),
(27,109,l),
(75,86,l)
);
}
);
width = 458;
},
{
layerId = "1AEC2AE6-7FD3-416F-AB62-5405269463F6";
shapes = (
{
closed = 1;
nodes = (
(310,632,l),
(309,472,l),
(336,471,l),
(336,632,l)
);
},
{
closed = 1;
nodes = (
(318,389,l),
(317,229,l),
(344,228,l),
(344,389,l)
);
},
{
closed = 1;
nodes = (
(66,245,l),
(65,121,l),
(89,121,l),
(91,245,l)
);
},
{
closed = 1;
nodes = (
(315,161,l),
(304,108,l),
(331,102,l),
(340,156,l)
);
},
{
closed = 1;
nodes = (
(272,88,l),
(227,57,l),
(242,34,l),
(287,66,l)
);
},
{
closed = 1;
nodes = (
(191,59,l),
(93,102,l),
(81,78,l),
(180,36,l)
);
}
);
width = 458;
},
{
layerId = "B466964A-22F3-4054-88BE-B6989E35C817";
shapes = (
{
closed = 1;
nodes = (
(310,632,l),
(309,472,l),
(336,471,l),
(336,632,l)
);
},
{
closed = 1;
nodes = (
(309,489,l),
(310,480,l),
(335,479,l),
(335,489,l)
);
},
{
closed = 1;
nodes = (
(66,245,l),
(65,121,l),
(89,121,l),
(91,245,l)
);
},
{
closed = 1;
nodes = (
(255,72,l),
(254,69,l),
(281,63,l),
(280,67,l)
);
},
{
closed = 1;
nodes = (
(272,88,l),
(227,57,l),
(242,34,l),
(287,66,l)
);
},
{
closed = 1;
nodes = (
(87,153,l),
(79,159,l),
(67,135,l),
(76,130,l)
);
}
);
width = 458;
}
);
note = J;
unicode = (74,106);
},
{
glyphname = K;
kernRight = K;
lastChange = "2025-10-03 19:41:15 +0000";
layers = (
{
layerId = m01;
shapes = (
{
closed = 1;
nodes = (
(85,683,l),
(84,433,l),
(201,428,l),
(201,679,l)
);
},
{
closed = 1;
nodes = (
(85,251,l),
(84,1,l),
(201,-4,l),
(201,247,l)
);
},
{
closed = 1;
nodes = (
(88,467,l),
(87,217,l),
(204,212,l),
(204,463,l)
);
},
{
closed = 1;
nodes = (
(443,706,l),
(282,515,l),
(368,436,l),
(530,627,l)
);
},
{
closed = 1;
nodes = (
(284,528,l),
(123,337,l),
(209,258,l),
(371,449,l)
);
},
{
closed = 1;
nodes = (
(557,60,l),
(447,252,l),
(342,199,l),
(453,4,l)
);
},
{
closed = 1;
nodes = (
(448,248,l),
(323,465,l),
(221,411,l),
(343,193,l)
);
}
);
width = 604;
},
{
layerId = "A1660191-6A08-4E85-BAD2-45B604C2F82B";
shapes = (
{
closed = 1;
nodes = (
(85,681,l),
(84,433,l),
(201,428,l),
(201,681,l)
);
},
{
closed = 1;
nodes = (
(85,249,l),
(84,1,l),
(201,-4,l),
(201,249,l)
);
},
{
closed = 1;
nodes = (
(96,243,l),
(86,151,l),
(200,146,l),
(200,243,l)
);
},
{
closed = 1;
nodes = (
(277,519,l),
(224,439,l),
(297,374,l),
(367,446,l)
);
},
{
closed = 1;
nodes = (
(283,527,l),
(122,337,l),
(209,259,l),
(372,450,l)
);
},
{
closed = 1;
nodes = (
(557,61,l),
(446,253,l),
(343,198,l),
(453,3,l)
);
},
{
closed = 1;
nodes = (
(323,403,l),
(274,446,l),
(183,398,l),
(203,341,l)
);
}
);
width = 604;
},
{
layerId = "1AEC2AE6-7FD3-416F-AB62-5405269463F6";
shapes = (
{
closed = 1;
nodes = (
(130,636,l),
(129,476,l),
(156,475,l),
(156,636,l)
);
},
{
closed = 1;
nodes = (
(130,204,l),
(129,44,l),
(156,43,l),
(156,204,l)
);
},
{
closed = 1;
nodes = (
(133,420,l),
(132,260,l),
(159,259,l),
(159,420,l)
);
},
{
closed = 1;
nodes = (
(447,641,l),
(344,519,l),
(364,501,l),
(468,623,l)
);
},
{
closed = 1;
nodes = (
(288,463,l),
(185,341,l),
(205,323,l),
(309,445,l)
);
},
{
closed = 1;
nodes = (
(495,78,l),
(429,193,l),
(405,180,l),
(470,64,l)
);
},
{
closed = 1;
nodes = (
(386,266,l),
(306,405,l),
(283,393,l),
(361,253,l)
);
}
);
width = 604;
},
{
layerId = "B466964A-22F3-4054-88BE-B6989E35C817";
shapes = (
{
closed = 1;
nodes = (
(130,636,l),
(129,476,l),
(156,475,l),
(156,636,l)
);
},
{
closed = 1;
nodes = (
(130,204,l),
(129,44,l),
(156,43,l),
(156,204,l)
);
},
{
closed = 1;
nodes = (
(131,198,l),
(130,194,l),
(155,193,l),
(155,198,l)
);
},
{
closed = 1;
nodes = (
(284,458,l),
(280,450,l),
(298,434,l),
(305,440,l)
);
},
{
closed = 1;
nodes = (
(288,463,l),
(185,341,l),
(205,323,l),
(309,445,l)
);
},
{
closed = 1;
nodes = (
(495,78,l),
(429,193,l),
(405,180,l),
(470,64,l)
);
},
{
closed = 1;
nodes = (
(264,402,l),
(259,407,l),
(236,395,l),
(239,389,l)
);
}
);
width = 604;
}
);
note = K;
unicode = (75,107);
},
{
glyphname = L;
kernRight = L;
lastChange = "2025-10-03 19:41:15 +0000";
layers = (
{
layerId = m01;
shapes = (
{
closed = 1;
nodes = (
(85,683,l),
(84,433,l),
(201,428,l),
(201,679,l)
);
},
{
closed = 1;
nodes = (
(81,435,l),
(88,185,l),
(205,184,l),
(197,435,l)
);
},
{
closed = 1;
nodes = (
(85,256,l),
(84,6,l),
(201,1,l),
(201,252,l)
);
},
{
closed = 1;
nodes = (
(476,113,l),
(177,111,l),
(176,-6,l),
(476,-3,l)
);
}
);
width = 524;
},
{
layerId = "A1660191-6A08-4E85-BAD2-45B604C2F82B";
shapes = (
{
closed = 1;
nodes = (
(91,452,l),
(90,358,l),
(197,353,l),
(197,452,l)
);
},
{
closed = 1;
nodes = (
(81,465,l),
(88,217,l),
(206,212,l),
(196,465,l)
);
},
{
closed = 1;
nodes = (
(88,322,l),
(97,224,l),
(203,219,l),
(203,322,l)
);
},
{
closed = 1;
nodes = (
(476,113,l),
(179,111,l),
(174,-7,l),
(476,-2,l)
);
}
);
width = 524;
},
{
layerId = "1AEC2AE6-7FD3-416F-AB62-5405269463F6";
shapes = (
{
closed = 1;
nodes = (
(130,636,l),
(129,476,l),
(156,475,l),
(156,636,l)
);
},
{
closed = 1;
nodes = (
(127,420,l),
(132,260,l),
(159,259,l),
(153,420,l)
);
},
{
closed = 1;
nodes = (
(130,209,l),
(129,49,l),
(156,48,l),
(156,209,l)
);
},
{
closed = 1;
nodes = (
(431,68,l),
(222,66,l),
(221,39,l),
(431,42,l)
);
}
);
width = 524;
},
{
layerId = "B466964A-22F3-4054-88BE-B6989E35C817";
shapes = (
{
closed = 1;
nodes = (
(129,407,l),
(128,401,l),
(152,400,l),
(152,407,l)
);
},
{
closed = 1;
nodes = (
(127,420,l),
(132,260,l),
(159,259,l),
(153,420,l)
);
},
{
closed = 1;
nodes = (
(132,277,l),
(134,267,l),
(158,266,l),
(158,277,l)
);
},
{
closed = 1;
nodes = (
(431,68,l),
(222,66,l),
(221,39,l),
(431,42,l)
);
}
);
width = 524;
}
);
note = L;
unicode = (76,108);
},
{
glyphname = M;
lastChange = "2025-10-03 19:41:15 +0000";
layers = (
{
layerId = m01;
shapes = (
{
closed = 1;
nodes = (
(644,681,l),
(642,432,l),
(760,426,l),
(760,678,l)
);
},
{
closed = 1;
nodes = (
(649,256,l),
(647,7,l),
(765,1,l),
(765,253,l)
);
},
{
closed = 1;
nodes = (
(646,466,l),
(644,217,l),
(762,211,l),
(762,463,l)
);
},
{
closed = 1;
nodes = (
(82,677,l),
(80,428,l),
(198,422,l),
(198,674,l)
);
},
{
closed = 1;
nodes = (
(92,252,l),
(90,3,l),
(208,-3,l),
(208,249,l)
);
},
{
closed = 1;
nodes = (
(79,459,l),
(90,210,l),
(208,210,l),
(195,462,l)
);
},
{
closed = 1;
nodes = (
(163,653,l),
(234,414,l),
(348,443,l),
(275,685,l)
);
},
{
closed = 1;
nodes = (
(238,424,l),
(309,185,l),
(423,214,l),
(350,456,l)
);
},
{
closed = 1;
nodes = (
(298,240,l),
(369,1,l),
(483,30,l),
(410,272,l)
);
},
{
closed = 1;
nodes = (
(489,444,l),
(603,415,l),
(674,654,l),
(562,686,l)
);
},
{
closed = 1;
nodes = (
(420,215,l),
(534,186,l),
(605,425,l),
(493,457,l)
);
},
{
closed = 1;
nodes = (
(364,31,l),
(478,2,l),
(549,241,l),
(437,273,l)
);
}
);
width = 851;
},
{
layerId = "A1660191-6A08-4E85-BAD2-45B604C2F82B";
shapes = (
{
closed = 1;
nodes = (
(646,460,l),
(646,363,l),
(762,354,l),
(762,455,l)
);
},
{
closed = 1;
nodes = (
(658,323,l),
(646,227,l),
(756,220,l),
(756,319,l)
);
},
{
closed = 1;
nodes = (
(647,467,l),
(643,218,l),
(762,210,l),
(762,462,l)
);
},
{
closed = 1;
nodes = (
(83,678,l),
(79,429,l),
(198,421,l),
(198,673,l)
);
},
{
closed = 1;
nodes = (
(93,253,l),
(89,4,l),
(208,-4,l),
(208,248,l)
);
},
{
closed = 1;
nodes = (
(85,529,l),
(75,431,l),
(192,431,l),
(193,534,l)
);
},
{
closed = 1;
nodes = (
(163,652,l),
(234,413,l),
(347,444,l),
(275,686,l)
);
},
{
closed = 1;
nodes = (
(302,229,l),
(335,143,l),
(440,172,l),
(413,267,l)
);
},
{
closed = 1;
nodes = (
(298,239,l),
(369,0,l),
(482,31,l),
(410,273,l)
);
},
{
closed = 1;
nodes = (
(464,357,l),
(573,326,l),
(604,418,l),
(493,455,l)
);
},
{
closed = 1;
nodes = (
(421,216,l),
(534,185,l),
(605,424,l),
(493,458,l)
);
},
{
closed = 1;
nodes = (
(424,224,l),
(533,193,l),
(564,285,l),
(453,322,l)
);
}
);
width = 851;
},
{
layerId = "1AEC2AE6-7FD3-416F-AB62-5405269463F6";
shapes = (
{
closed = 1;
nodes = (
(689,635,l),
(687,475,l),
(715,473,l),
(715,634,l)
);
},
{
closed = 1;
nodes = (
(694,210,l),
(692,50,l),
(720,48,l),
(720,209,l)
);
},
{
closed = 1;
nodes = (
(691,420,l),
(689,260,l),
(717,258,l),
(717,419,l)
);
},
{
closed = 1;
nodes = (
(127,631,l),
(125,471,l),
(153,469,l),
(153,630,l)
);
},
{
closed = 1;
nodes = (
(137,206,l),
(135,46,l),
(163,44,l),
(163,205,l)
);
},
{
closed = 1;
nodes = (
(126,415,l),
(133,255,l),
(161,255,l),
(152,416,l)
);
},
{
closed = 1;
nodes = (
(219,622,l),
(265,468,l),
(291,475,l),
(245,630,l)
);
},
{
closed = 1;
nodes = (
(294,393,l),
(340,239,l),
(366,246,l),
(320,401,l)
);
},
{
closed = 1;
nodes = (
(354,209,l),
(400,55,l),
(426,62,l),
(380,217,l)
);
},
{
closed = 1;
nodes = (
(546,476,l),
(572,469,l),
(618,623,l),
(592,631,l)
);
},
{
closed = 1;
nodes = (
(477,247,l),
(503,240,l),
(549,394,l),
(523,402,l)
);
},
{
closed = 1;
nodes = (
(421,63,l),
(447,56,l),
(493,210,l),
(467,218,l)
);
}
);
width = 851;
},
{
layerId = "B466964A-22F3-4054-88BE-B6989E35C817";
shapes = (
{
closed = 1;
nodes = (
(691,413,l),
(691,405,l),
(717,403,l),
(717,412,l)
);
},
{
closed = 1;
nodes = (
(692,277,l),
(690,270,l),
(717,268,l),
(718,276,l)
);
},
{
closed = 1;
nodes = (
(691,420,l),
(689,260,l),
(717,258,l),
(717,419,l)
);
},
{
closed = 1;
nodes = (
(127,631,l),
(125,471,l),
(153,469,l),
(153,630,l)
);
},
{
closed = 1;
nodes = (
(137,206,l),
(135,46,l),
(163,44,l),
(163,205,l)
);
},
{
closed = 1;
nodes = (
(126,486,l),
(125,476,l),
(153,476,l),
(152,487,l)
);
},
{
closed = 1;
nodes = (
(219,622,l),
(265,468,l),
(291,475,l),
(245,630,l)
);
},
{
closed = 1;
nodes = (
(356,202,l),
(359,196,l),
(384,203,l),
(382,210,l)
);
},
{
closed = 1;
nodes = (
(354,209,l),
(400,55,l),
(426,62,l),
(380,217,l)
);
},
{
closed = 1;
nodes = (
(520,388,l),
(544,381,l),
(547,390,l),
(523,398,l)
);
},
{
closed = 1;
nodes = (
(477,247,l),
(503,240,l),
(549,394,l),
(523,402,l)
);
},
{
closed = 1;
nodes = (
(480,255,l),
(504,248,l),
(507,257,l),
(483,265,l)
);
}
);
width = 851;
}
);
note = M;
unicode = (77,109);
},
{
glyphname = N;
lastChange = "2025-10-03 19:41:15 +0000";
layers = (
{
layerId = m01;
shapes = (
{
closed = 1;
nodes = (
(92,252,l),
(90,3,l),
(208,-3,l),
(208,249,l)
);
},
{
closed = 1;
nodes = (
(90,681,l),
(88,432,l),
(206,426,l),
(206,678,l)
);
},
{
closed = 1;
nodes = (
(85,476,l),
(83,227,l),
(201,221,l),
(201,473,l)
);
},
{
closed = 1;
nodes = (
(456,683,l),
(454,434,l),
(572,428,l),
(572,680,l)
);
},
{
closed = 1;
nodes = (
(463,253,l),
(461,4,l),
(579,-2,l),
(579,250,l)
);
},
{
closed = 1;
nodes = (
(455,471,l),
(462,222,l),
(580,220,l),
(571,472,l)
);
},
{
closed = 1;
nodes = (
(105,623,l),
(224,404,l),
(331,455,l),
(208,677,l)
);
},
{
closed = 1;
nodes = (
(227,407,l),
(346,188,l),
(453,239,l),
(330,461,l)
);
},
{
closed = 1;
nodes = (
(330,223,l),
(449,4,l),
(556,55,l),
(433,277,l)
);
}
);
width = 661;
},
{
layerId = "A1660191-6A08-4E85-BAD2-45B604C2F82B";
shapes = (
{
closed = 1;
nodes = (
(91,324,l),
(82,228,l),
(201,220,l),
(194,321,l)
);
},
{
closed = 1;
nodes = (
(98,463,l),
(98,376,l),
(201,367,l),
(201,463,l)
);
},
{
closed = 1;
nodes = (
(86,477,l),
(82,228,l),
(201,220,l),
(201,472,l)
);
},
{
closed = 1;
nodes = (
(457,684,l),
(453,435,l),
(572,427,l),
(572,679,l)
);
},
{
closed = 1;
nodes = (
(464,254,l),
(460,5,l),
(579,-3,l),
(579,249,l)
);
},
{
closed = 1;
nodes = (
(455,530,l),
(455,438,l),
(572,438,l),
(572,535,l)
);
},
{
closed = 1;
nodes = (
(233,400,l),
(286,309,l),
(375,361,l),
(333,447,l)
);
},
{
closed = 1;
nodes = (
(227,406,l),
(346,188,l),
(452,239,l),
(330,462,l)
);
},
{
closed = 1;
nodes = (
(302,269,l),
(348,189,l),
(456,241,l),
(401,324,l)
);
}
);
width = 661;
},
{
layerId = "1AEC2AE6-7FD3-416F-AB62-5405269463F6";
shapes = (
{
closed = 1;
nodes = (
(137,206,l),
(135,46,l),
(163,44,l),
(163,205,l)
);
},
{
closed = 1;
nodes = (
(135,635,l),
(133,475,l),
(161,473,l),
(161,634,l)
);
},
{
closed = 1;
nodes = (
(130,430,l),
(128,270,l),
(156,268,l),
(156,429,l)
);
},
{
closed = 1;
nodes = (
(501,637,l),
(499,477,l),
(527,475,l),
(527,636,l)
);
},
{
closed = 1;
nodes = (
(508,207,l),
(506,47,l),
(534,45,l),
(534,206,l)
);
},
{
closed = 1;
nodes = (
(501,426,l),
(506,266,l),
(533,266,l),
(528,427,l)
);
},
{
closed = 1;
nodes = (
(166,604,l),
(243,463,l),
(268,475,l),
(190,617,l)
);
},
{
closed = 1;
nodes = (
(288,388,l),
(365,247,l),
(390,259,l),
(312,401,l)
);
},
{
closed = 1;
nodes = (
(391,204,l),
(468,63,l),
(493,75,l),
(415,217,l)
);
}
);
width = 661;
},
{
layerId = "B466964A-22F3-4054-88BE-B6989E35C817";
shapes = (
{
closed = 1;
nodes = (
(129,278,l),
(128,272,l),
(156,270,l),
(155,277,l)
);
},
{
closed = 1;
nodes = (
(130,421,l),
(131,418,l),
(156,416,l),
(156,420,l)
);
},
{
closed = 1;
nodes = (
(130,430,l),
(128,270,l),
(156,268,l),
(156,429,l)
);
},
{
closed = 1;
nodes = (
(501,637,l),
(499,477,l),
(527,475,l),
(527,636,l)
);
},
{
closed = 1;
nodes = (
(508,207,l),
(506,47,l),
(534,45,l),
(534,206,l)
);
},
{
closed = 1;
nodes = (
(500,487,l),
(500,483,l),
(527,483,l),
(527,488,l)
);
},
{
closed = 1;
nodes = (
(292,381,l),
(299,366,l),
(321,380,l),
(316,394,l)
);
},
{
closed = 1;
nodes = (
(288,388,l),
(365,247,l),
(390,259,l),
(312,401,l)
);
},
{
closed = 1;
nodes = (
(362,252,l),
(365,247,l),
(390,259,l),
(386,265,l)
);
}
);
width = 661;
}
);
note = N;
unicode = (78,110);
},
{
glyphname = O;
kernLeft = C;
kernRight = O;
lastChange = "2025-10-03 19:41:15 +0000";
layers = (
{
layerId = m01;
shapes = (
{
closed = 1;
nodes = (
(548,385,l),
(648,432,l),
(553,638,l),
(450,589,l)
);
},
{
closed = 1;
nodes = (
(155,638,l),
(60,432,l),
(160,385,l),
(258,589,l)
);
},
{
closed = 1;
nodes = (
(349,705,l),
(165,637,l),
(209,534,l),
(393,599,l)
);
},
{
closed = 1;
nodes = (
(500,530,l),
(547,632,l),
(354,710,l),
(306,606,l)
);
},
{
closed = 1;
nodes = (
(560,60,l),
(655,266,l),
(555,313,l),
(457,109,l)
);
},
{
closed = 1;
nodes = (
(167,313,l),
(67,266,l),
(162,60,l),
(265,109,l)
);
},
{
closed = 1;
nodes = (
(216,164,l),
(172,61,l),
(356,-7,l),
(400,99,l)
);
},
{
closed = 1;
nodes = (
(361,-12,l),
(556,68,l),
(509,170,l),
(313,92,l)
);
},
{
closed = 1;
nodes = (
(538,267,l),
(649,259,l),
(647,434,l),
(532,441,l)
);
},
{
closed = 1;
nodes = (
(62,439,l),
(64,253,l),
(176,260,l),
(176,446,l)
);
}
);
width = 705;
},
{
layerId = "A1660191-6A08-4E85-BAD2-45B604C2F82B";
shapes = (
{
closed = 1;
nodes = (
(548,385,l),
(647,432,l),
(553,638,l),
(450,589,l)
);
},
{
closed = 1;
nodes = (
(77,434,l),
(68,362,l),
(141,323,l),
(178,403,l)
);
},
{
closed = 1;
nodes = (
(349,705,l),
(165,637,l),
(209,533,l),
(392,600,l)
);
},
{
closed = 1;
nodes = (
(307,578,l),
(351,682,l),
(330,694,l),
(276,595,l)
);
},
{
closed = 1;
nodes = (
(537,70,l),
(533,96,l),
(446,137,l),
(418,127,l)
);
},
{
closed = 1;
nodes = (
(149,388,l),
(72,332,l),
(76,264,l),
(173,301,l)
);
},
{
closed = 1;
nodes = (
(393,122,l),
(351,22,l),
(377,0,l),
(422,112,l)
);
},
{
closed = 1;
nodes = (
(361,-12,l),
(555,68,l),
(509,170,l),
(313,93,l)
);
},
{
closed = 1;
nodes = (
(525,445,l),
(638,434,l),
(627,454,l),
(514,460,l)
);
},
{
closed = 1;
nodes = (
(62,440,l),
(63,254,l),
(176,259,l),
(176,445,l)
);
}
);
width = 705;
},
{
layerId = "1AEC2AE6-7FD3-416F-AB62-5405269463F6";
shapes = (
{
closed = 1;
nodes = (
(569,445,l),
(588,454,l),
(531,578,l),
(510,568,l)
);
},
{
closed = 1;
nodes = (
(177,578,l),
(120,454,l),
(139,445,l),
(198,568,l)
);
},
{
closed = 1;
nodes = (
(324,648,l),
(225,611,l),
(234,590,l),
(333,626,l)
);
},
{
closed = 1;
nodes = (
(477,587,l),
(486,608,l),
(377,652,l),
(367,630,l)
);
},
{
closed = 1;
nodes = (
(538,120,l),
(595,244,l),
(576,253,l),
(517,130,l)
);
},
{
closed = 1;
nodes = (
(146,253,l),
(127,244,l),
(184,120,l),
(205,130,l)
);
},
{
closed = 1;
nodes = (
(241,108,l),
(232,87,l),
(331,50,l),
(340,72,l)
);
},
{
closed = 1;
nodes = (
(384,46,l),
(495,92,l),
(486,112,l),
(374,68,l)
);
},
{
closed = 1;
nodes = (
(582,309,l),
(603,307,l),
(602,392,l),
(579,393,l)
);
},
{
closed = 1;
nodes = (
(107,397,l),
(108,301,l),
(131,302,l),
(131,398,l)
);
}
);
width = 705;
},
{
layerId = "B466964A-22F3-4054-88BE-B6989E35C817";
shapes = (
{
closed = 1;
nodes = (
(569,445,l),
(588,454,l),
(531,578,l),
(510,568,l)
);
},
{
closed = 1;
nodes = (
(109,393,l),
(108,388,l),
(127,379,l),
(130,383,l)
);
},
{
closed = 1;
nodes = (
(324,648,l),
(225,611,l),
(234,590,l),
(333,626,l)
);
},
{
closed = 1;
nodes = (
(315,622,l),
(324,643,l),
(320,645,l),
(309,625,l)
);
},
{
closed = 1;
nodes = (
(487,88,l),
(489,94,l),
(470,103,l),
(466,98,l)
);
},
{
closed = 1;
nodes = (
(128,328,l),
(109,319,l),
(110,312,l),
(131,322,l)
);
},
{
closed = 1;
nodes = (
(393,74,l),
(384,53,l),
(390,49,l),
(399,71,l)
);
},
{
closed = 1;
nodes = (
(384,46,l),
(495,92,l),
(486,112,l),
(374,68,l)
);
},
{
closed = 1;
nodes = (
(564,456,l),
(585,454,l),
(584,462,l),
(563,463,l)
);
},
{
closed = 1;
nodes = (
(107,397,l),
(108,301,l),
(131,302,l),
(131,398,l)
);
}
);
width = 705;
}
);
note = O;
unicode = (79,111);
},
{
glyphname = P;
kernRight = P;
lastChange = "2025-10-03 19:41:15 +0000";
layers = (
{
layerId = m01;
shapes = (
{
closed = 1;
nodes = (
(83,678,l),
(91,425,l),
(201,424,l),
(193,677,l)
);
},
{
closed = 1;
nodes = (
(85,439,l),
(93,190,l),
(203,189,l),
(195,438,l)
);
},
{
closed = 1;
nodes = (
(89,255,l),
(92,6,l),
(201,3,l),
(198,252,l)
);
},
{
closed = 1;
nodes = (
(390,677,l),
(193,676,l),
(192,566,l),
(389,567,l)
);
},
{
closed = 1;
nodes = (
(390,394,l),
(166,394,l),
(165,284,l),
(389,284,l)
);
},
{
closed = 1;
nodes = (
(444,482,l),
(322,363,l),
(398,283,l),
(519,402,l)
);
},
{
closed = 1;
nodes = (
(403,690,l),
(327,610,l),
(449,491,l),
(524,571,l)
);
},
{
closed = 1;
nodes = (
(516,572,l),
(406,567,l),
(411,397,l),
(520,402,l)
);
}
);
width = 557;
},
{
layerId = "A1660191-6A08-4E85-BAD2-45B604C2F82B";
shapes = (
{
closed = 1;
nodes = (
(82,680,l),
(92,427,l),
(202,422,l),
(192,675,l)
);
},
{
closed = 1;
nodes = (
(89,246,l),
(90,143,l),
(198,137,l),
(197,240,l)
);
},
{
closed = 1;
nodes = (
(90,256,l),
(91,7,l),
(200,2,l),
(199,251,l)
);
},
{
closed = 1;
nodes = (
(423,662,l),
(412,666,l),
(406,555,l),
(417,551,l)
);
},
{
closed = 1;
nodes = (
(392,394,l),
(168,394,l),
(163,284,l),
(387,284,l)
);
},
{
closed = 1;
nodes = (
(443,523,l),
(415,500,l),
(487,410,l),
(506,438,l)
);
},
{
closed = 1;
nodes = (
(403,690,l),
(327,609,l),
(451,490,l),
(523,572,l)
);
},
{
closed = 1;
nodes = (
(516,572,l),
(405,567,l),
(412,397,l),
(520,402,l)
);
}
);
width = 557;
},
{
layerId = "1AEC2AE6-7FD3-416F-AB62-5405269463F6";
shapes = (
{
closed = 1;
nodes = (
(129,633,l),
(135,470,l),
(155,469,l),
(149,632,l)
);
},
{
closed = 1;
nodes = (
(131,414,l),
(137,255,l),
(157,254,l),
(151,413,l)
);
},
{
closed = 1;
nodes = (
(135,209,l),
(136,50,l),
(155,49,l),
(154,208,l)
);
},
{
closed = 1;
nodes = (
(345,632,l),
(238,631,l),
(237,611,l),
(344,612,l)
);
},
{
closed = 1;
nodes = (
(345,349,l),
(211,349,l),
(210,329,l),
(344,329,l)
);
},
{
closed = 1;
nodes = (
(443,418,l),
(385,362,l),
(399,347,l),
(456,403,l)
);
},
{
closed = 1;
nodes = (
(404,626,l),
(390,611,l),
(448,555,l),
(461,570,l)
);
},
{
closed = 1;
nodes = (
(472,525,l),
(452,524,l),
(455,444,l),
(474,445,l)
);
}
);
width = 557;
},
{
layerId = "B466964A-22F3-4054-88BE-B6989E35C817";
shapes = (
{
closed = 1;
nodes = (
(129,633,l),
(135,470,l),
(155,469,l),
(149,632,l)
);
},
{
closed = 1;
nodes = (
(136,198,l),
(137,191,l),
(154,190,l),
(153,197,l)
);
},
{
closed = 1;
nodes = (
(135,209,l),
(136,50,l),
(155,49,l),
(154,208,l)
);
},
{
closed = 1;
nodes = (
(411,619,l),
(404,620,l),
(403,600,l),
(410,599,l)
);
},
{
closed = 1;
nodes = (
(345,349,l),
(211,349,l),
(210,329,l),
(344,329,l)
);
},
{
closed = 1;
nodes = (
(462,469,l),
(457,464,l),
(469,449,l),
(473,454,l)
);
},
{
closed = 1;
nodes = (
(404,626,l),
(390,611,l),
(448,555,l),
(461,570,l)
);
},
{
closed = 1;
nodes = (
(472,525,l),
(452,524,l),
(455,444,l),
(474,445,l)
);
}
);
width = 557;
}
);
note = P;
unicode = (80,112);
},
{
glyphname = Q;
kernLeft = C;
kernRight = O;
lastChange = "2025-10-03 19:41:15 +0000";
layers = (
{
layerId = m01;
shapes = (
{
closed = 1;
nodes = (
(543,379,l),
(643,426,l),
(548,632,l),
(445,583,l)
);
},
{
closed = 1;
nodes = (
(150,632,l),
(55,426,l),
(155,379,l),
(253,583,l)
);
},
{
closed = 1;
nodes = (
(344,699,l),
(160,631,l),
(204,528,l),
(388,593,l)
);
},
{
closed = 1;
nodes = (
(495,524,l),
(542,626,l),
(349,704,l),
(301,600,l)
);
},
{
closed = 1;
nodes = (
(555,54,l),
(650,260,l),
(550,307,l),
(452,103,l)
);
},
{
closed = 1;
nodes = (
(162,307,l),
(62,260,l),
(157,54,l),
(260,103,l)
);
},
{
closed = 1;
nodes = (
(211,158,l),
(167,55,l),
(351,-13,l),
(395,93,l)
);
},
{
closed = 1;
nodes = (
(356,-18,l),
(551,62,l),
(504,164,l),
(308,86,l)
);
},
{
closed = 1;
nodes = (
(533,261,l),
(644,253,l),
(642,428,l),
(527,435,l)
);
},
{
closed = 1;
nodes = (
(57,433,l),
(59,247,l),
(171,254,l),
(171,440,l)
);
},
{
closed = 1;
nodes = (
(317,221,l),
(534,-46,l),
(618,27,l),
(403,295,l)
);
}
);
width = 709;
},
{
layerId = "A1660191-6A08-4E85-BAD2-45B604C2F82B";
shapes = (
{
closed = 1;
nodes = (
(543,379,l),
(642,426,l),
(548,632,l),
(445,583,l)
);
},
{
closed = 1;
nodes = (
(184,625,l),
(183,599,l),
(270,558,l),
(303,568,l)
);
},
{
closed = 1;
nodes = (
(344,699,l),
(160,631,l),
(204,527,l),
(387,594,l)
);
},
{
closed = 1;
nodes = (
(288,578,l),
(330,677,l),
(317,689,l),
(263,571,l)
);
},
{
closed = 1;
nodes = (
(566,10,l),
(534,125,l),
(454,168,l),
(445,72,l)
);
},
{
closed = 1;
nodes = (
(162,307,l),
(63,260,l),
(157,54,l),
(260,103,l)
);
},
{
closed = 1;
nodes = (
(204,191,l),
(162,92,l),
(168,70,l),
(214,180,l)
);
},
{
closed = 1;
nodes = (
(464,47,l),
(567,25,l),
(515,139,l),
(381,206,l)
);
},
{
closed = 1;
nodes = (
(527,410,l),
(637,437,l),
(616,483,l),
(492,489,l)
);
},
{
closed = 1;
nodes = (
(81,237,l),
(105,178,l),
(206,201,l),
(192,242,l)
);
},
{
closed = 1;
nodes = (
(319,219,l),
(536,-48,l),
(617,29,l),
(402,297,l)
);
}
);
width = 709;
},
{
layerId = "1AEC2AE6-7FD3-416F-AB62-5405269463F6";
shapes = (
{
closed = 1;
nodes = (
(564,439,l),
(583,448,l),
(526,572,l),
(505,562,l)
);
},
{
closed = 1;
nodes = (
(172,572,l),
(115,448,l),
(134,439,l),
(193,562,l)
);
},
{
closed = 1;
nodes = (
(319,642,l),
(220,605,l),
(229,584,l),
(328,620,l)
);
},
{
closed = 1;
nodes = (
(472,581,l),
(481,602,l),
(372,646,l),
(362,624,l)
);
},
{
closed = 1;
nodes = (
(533,114,l),
(590,238,l),
(571,247,l),
(512,124,l)
);
},
{
closed = 1;
nodes = (
(141,247,l),
(122,238,l),
(179,114,l),
(200,124,l)
);
},
{
closed = 1;
nodes = (
(236,102,l),
(227,81,l),
(326,44,l),
(335,66,l)
);
},
{
closed = 1;
nodes = (
(379,40,l),
(490,86,l),
(481,106,l),
(369,62,l)
);
},
{
closed = 1;
nodes = (
(577,303,l),
(598,301,l),
(597,386,l),
(574,387,l)
);
},
{
closed = 1;
nodes = (
(102,391,l),
(103,295,l),
(126,296,l),
(126,392,l)
);
},
{
closed = 1;
nodes = (
(380,215,l),
(540,18,l),
(556,33,l),
(397,231,l)
);
}
);
width = 709;
},
{
layerId = "B466964A-22F3-4054-88BE-B6989E35C817";
shapes = (
{
closed = 1;
nodes = (
(564,439,l),
(583,448,l),
(526,572,l),
(505,562,l)
);
},
{
closed = 1;
nodes = (
(230,606,l),
(228,600,l),
(247,591,l),
(251,596,l)
);
},
{
closed = 1;
nodes = (
(319,642,l),
(220,605,l),
(229,584,l),
(328,620,l)
);
},
{
closed = 1;
nodes = (
(309,616,l),
(318,637,l),
(313,638,l),
(303,616,l)
);
},
{
closed = 1;
nodes = (
(507,88,l),
(506,94,l),
(487,103,l),
(486,98,l)
);
},
{
closed = 1;
nodes = (
(141,247,l),
(122,238,l),
(179,114,l),
(200,124,l)
);
},
{
closed = 1;
nodes = (
(184,143,l),
(175,122,l),
(182,119,l),
(191,141,l)
);
},
{
closed = 1;
nodes = (
(485,87,l),
(490,86,l),
(481,106,l),
(475,109,l)
);
},
{
closed = 1;
nodes = (
(559,452,l),
(580,450,l),
(578,459,l),
(556,460,l)
);
},
{
closed = 1;
nodes = (
(125,231,l),
(127,225,l),
(148,226,l),
(149,232,l)
);
},
{
closed = 1;
nodes = (
(380,215,l),
(540,18,l),
(556,33,l),
(397,231,l)
);
}
);
width = 709;
}
);
note = Q;
unicode = (81,113);
},
{
glyphname = R;
kernRight = R;
lastChange = "2025-10-03 19:41:15 +0000";
layers = (
{
layerId = m01;
shapes = (
{
closed = 1;
nodes = (
(83,678,l),
(91,425,l),
(201,424,l),
(193,677,l)
);
},
{
closed = 1;
nodes = (
(85,439,l),
(93,190,l),
(203,189,l),
(195,438,l)
);
},
{
closed = 1;
nodes = (
(89,255,l),
(92,6,l),
(201,3,l),
(198,252,l)
);
},
{
closed = 1;
nodes = (
(448,677,l),
(193,676,l),
(192,566,l),
(447,567,l)
);
},
{
closed = 1;
nodes = (
(443,404,l),
(166,404,l),
(165,294,l),
(442,294,l)
);
},
{
closed = 1;
nodes = (
(498,484,l),
(376,365,l),
(452,285,l),
(573,404,l)
);
},
{
closed = 1;
nodes = (
(457,692,l),
(381,612,l),
(503,493,l),
(578,573,l)
);
},
{
closed = 1;
nodes = (
(577,574,l),
(467,569,l),
(472,399,l),
(581,404,l)
);
},
{
closed = 1;
nodes = (
(413,383,l),
(337,303,l),
(459,184,l),
(534,264,l)
);
},
{
closed = 1;
nodes = (
(525,269,l),
(416,251,l),
(456,44,l),
(564,63,l)
);
},
{
closed = 1;
nodes = (
(528,133,l),
(452,53,l),
(524,-14,l),
(599,66,l)
);
}
);
width = 624;
},
{
layerId = "A1660191-6A08-4E85-BAD2-45B604C2F82B";
shapes = (
{
closed = 1;
nodes = (
(82,680,l),
(92,427,l),
(202,422,l),
(192,675,l)
);
},
{
closed = 1;
nodes = (
(89,244,l),
(89,146,l),
(197,140,l),
(197,238,l)
);
},
{
closed = 1;
nodes = (
(90,256,l),
(91,7,l),
(200,2,l),
(199,251,l)
);
},
{
closed = 1;
nodes = (
(184,675,l),
(92,675,l),
(87,565,l),
(179,565,l)
);
},
{
closed = 1;
nodes = (
(445,404,l),
(168,404,l),
(163,294,l),
(440,294,l)
);
},
{
closed = 1;
nodes = (
(505,520,l),
(482,501,l),
(562,416,l),
(575,440,l)
);
},
{
closed = 1;
nodes = (
(556,565,l),
(473,477,l),
(512,451,l),
(579,528,l)
);
},
{
closed = 1;
nodes = (
(577,574,l),
(466,569,l),
(473,399,l),
(581,404,l)
);
},
{
closed = 1;
nodes = (
(381,402,l),
(298,314,l),
(332,302,l),
(399,379,l)
);
},
{
closed = 1;
nodes = (
(583,70,l),
(461,51,l),
(487,35,l),
(588,51,l)
);
},
{
closed = 1;
nodes = (
(522,139,l),
(445,61,l),
(535,-25,l),
(607,58,l)
);
}
);
width = 624;
},
{
layerId = "1AEC2AE6-7FD3-416F-AB62-5405269463F6";
shapes = (
{
closed = 1;
nodes = (
(129,633,l),
(135,470,l),
(155,469,l),
(149,632,l)
);
},
{
closed = 1;
nodes = (
(131,394,l),
(137,235,l),
(157,234,l),
(151,393,l)
);
},
{
closed = 1;
nodes = (
(135,209,l),
(136,50,l),
(155,49,l),
(154,208,l)
);
},
{
closed = 1;
nodes = (
(403,632,l),
(238,631,l),
(237,611,l),
(402,612,l)
);
},
{
closed = 1;
nodes = (
(398,359,l),
(211,359,l),
(210,339,l),
(397,339,l)
);
},
{
closed = 1;
nodes = (
(497,420,l),
(439,364,l),
(453,349,l),
(510,405,l)
);
},
{
closed = 1;
nodes = (
(458,628,l),
(444,613,l),
(502,557,l),
(515,572,l)
);
},
{
closed = 1;
nodes = (
(533,527,l),
(513,526,l),
(516,446,l),
(535,447,l)
);
},
{
closed = 1;
nodes = (
(414,319,l),
(400,304,l),
(458,248,l),
(471,263,l)
);
},
{
closed = 1;
nodes = (
(489,217,l),
(469,214,l),
(492,96,l),
(511,99,l)
);
},
{
closed = 1;
nodes = (
(523,76,l),
(509,62,l),
(532,40,l),
(545,55,l)
);
}
);
width = 624;
},
{
layerId = "B466964A-22F3-4054-88BE-B6989E35C817";
shapes = (
{
closed = 1;
nodes = (
(129,633,l),
(135,470,l),
(155,469,l),
(149,632,l)
);
},
{
closed = 1;
nodes = (
(137,199,l),
(136,193,l),
(153,192,l),
(154,198,l)
);
},
{
closed = 1;
nodes = (
(135,209,l),
(136,50,l),
(155,49,l),
(154,208,l)
);
},
{
closed = 1;
nodes = (
(137,630,l),
(135,630,l),
(134,610,l),
(136,610,l)
);
},
{
closed = 1;
nodes = (
(398,359,l),
(211,359,l),
(210,339,l),
(397,339,l)
);
},
{
closed = 1;
nodes = (
(520,472,l),
(515,469,l),
(529,454,l),
(533,457,l)
);
},
{
closed = 1;
nodes = (
(529,525,l),
(515,510,l),
(518,507,l),
(531,522,l)
);
},
{
closed = 1;
nodes = (
(533,527,l),
(513,526,l),
(516,446,l),
(535,447,l)
);
},
{
closed = 1;
nodes = (
(392,359,l),
(378,344,l),
(381,341,l),
(394,356,l)
);
},
{
closed = 1;
nodes = (
(534,63,l),
(514,60,l),
(516,56,l),
(535,59,l)
);
},
{
closed = 1;
nodes = (
(523,76,l),
(509,62,l),
(532,40,l),
(545,55,l)
);
}
);
width = 624;
}
);
note = R;
unicode = (82,114);
},
{
glyphname = S;
kernLeft = S;
kernRight = S;
lastChange = "2025-10-03 19:41:15 +0000";
layers = (
{
layerId = m01;
shapes = (
{
closed = 1;
nodes = (
(295,700,l),
(84,622,l),
(128,519,l),
(339,594,l)
);
},
{
closed = 1;
nodes = (
(449,518,l),
(496,620,l),
(305,704,l),
(257,600,l)
);
},
{
closed = 1;
nodes = (
(81,587,l),
(61,418,l),
(173,415,l),
(196,582,l)
);
},
{
closed = 1;
nodes = (
(350,381,l),
(93,483,l),
(74,373,l),
(329,267,l)
);
},
{
closed = 1;
nodes = (
(511,325,l),
(336,389,l),
(274,296,l),
(445,230,l)
);
},
{
closed = 1;
nodes = (
(402,0,l),
(552,128,l),
(475,209,l),
(325,85,l)
);
},
{
closed = 1;
nodes = (
(397,90,l),
(202,106,l),
(198,10,l),
(391,-9,l)
);
},
{
closed = 1;
nodes = (
(37,210,l),
(68,73,l),
(177,95,l),
(150,230,l)
);
},
{
closed = 1;
nodes = (
(70,84,l),
(198,0,l),
(251,73,l),
(150,166,l)
);
},
{
closed = 1;
nodes = (
(542,128,l),
(537,317,l),
(425,313,l),
(426,126,l)
);
},
{
closed = 1;
nodes = (
(394,602,l),
(425,465,l),
(534,487,l),
(507,622,l)
);
}
);
width = 588;
},
{
layerId = "A1660191-6A08-4E85-BAD2-45B604C2F82B";
shapes = (
{
closed = 1;
nodes = (
(325,693,l),
(305,684,l),
(349,587,l),
(377,565,l)
);
},
{
closed = 1;
nodes = (
(447,519,l),
(497,619,l),
(304,704,l),
(257,600,l)
);
},
{
closed = 1;
nodes = (
(92,426,l),
(92,381,l),
(197,376,l),
(215,421,l)
);
},
{
closed = 1;
nodes = (
(358,377,l),
(109,481,l),
(65,377,l),
(314,282,l)
);
},
{
closed = 1;
nodes = (
(351,380,l),
(254,413,l),
(229,316,l),
(319,291,l)
);
},
{
closed = 1;
nodes = (
(402,1,l),
(552,127,l),
(475,210,l),
(325,84,l)
);
},
{
closed = 1;
nodes = (
(460,134,l),
(402,147,l),
(402,14,l),
(450,40,l)
);
},
{
closed = 1;
nodes = (
(36,211,l),
(68,75,l),
(180,93,l),
(154,229,l)
);
},
{
closed = 1;
nodes = (
(58,117,l),
(95,92,l),
(154,182,l),
(156,214,l)
);
},
{
closed = 1;
nodes = (
(529,112,l),
(522,137,l),
(423,137,l),
(398,112,l)
);
},
{
closed = 1;
nodes = (
(350,583,l),
(371,572,l),
(474,591,l),
(474,603,l)
);
}
);
width = 588;
},
{
layerId = "1AEC2AE6-7FD3-416F-AB62-5405269463F6";
shapes = (
{
closed = 1;
nodes = (
(270,643,l),
(144,596,l),
(153,576,l),
(279,621,l)
);
},
{
closed = 1;
nodes = (
(426,577,l),
(436,597,l),
(327,645,l),
(317,623,l)
);
},
{
closed = 1;
nodes = (
(121,540,l),
(111,462,l),
(134,461,l),
(145,539,l)
);
},
{
closed = 1;
nodes = (
(299,353,l),
(133,422,l),
(124,401,l),
(290,331,l)
);
},
{
closed = 1;
nodes = (
(441,303,l),
(354,335,l),
(349,315,l),
(434,282,l)
);
},
{
closed = 1;
nodes = (
(406,63,l),
(487,131,l),
(471,148,l),
(390,80,l)
);
},
{
closed = 1;
nodes = (
(351,55,l),
(247,63,l),
(247,41,l),
(349,35,l)
);
},
{
closed = 1;
nodes = (
(91,174,l),
(102,126,l),
(127,130,l),
(118,178,l)
);
},
{
closed = 1;
nodes = (
(140,92,l),
(187,61,l),
(200,81,l),
(157,109,l)
);
},
{
closed = 1;
nodes = (
(496,172,l),
(493,270,l),
(470,270,l),
(471,172,l)
);
},
{
closed = 1;
nodes = (
(448,566,l),
(459,518,l),
(481,522,l),
(472,570,l)
);
}
);
width = 588;
},
{
layerId = "B466964A-22F3-4054-88BE-B6989E35C817";
shapes = (
{
closed = 1;
nodes = (
(335,639,l),
(328,638,l),
(337,618,l),
(344,617,l)
);
},
{
closed = 1;
nodes = (
(426,577,l),
(436,597,l),
(327,645,l),
(317,623,l)
);
},
{
closed = 1;
nodes = (
(133,408,l),
(133,403,l),
(156,402,l),
(157,407,l)
);
},
{
closed = 1;
nodes = (
(299,353,l),
(133,422,l),
(124,401,l),
(290,331,l)
);
},
{
closed = 1;
nodes = (
(293,355,l),
(286,357,l),
(281,337,l),
(286,334,l)
);
},
{
closed = 1;
nodes = (
(406,63,l),
(487,131,l),
(471,148,l),
(390,80,l)
);
},
{
closed = 1;
nodes = (
(410,89,l),
(403,89,l),
(403,67,l),
(408,69,l)
);
},
{
closed = 1;
nodes = (
(91,174,l),
(102,126,l),
(127,130,l),
(118,178,l)
);
},
{
closed = 1;
nodes = (
(103,137,l),
(108,131,l),
(121,151,l),
(120,154,l)
);
},
{
closed = 1;
nodes = (
(483,127,l),
(482,133,l),
(459,133,l),
(458,127,l)
);
},
{
closed = 1;
nodes = (
(405,595,l),
(409,586,l),
(431,590,l),
(429,599,l)
);
}
);
width = 588;
}
);
note = S;
unicode = (83,115);
},
{
glyphname = T;
kernLeft = T;
kernRight = T;
lastChange = "2025-10-03 19:41:15 +0000";
layers = (
{
layerId = m01;
shapes = (
{
closed = 1;
nodes = (
(216,255,l),
(223,6,l),
(334,5,l),
(326,254,l)
);
},
{
closed = 1;
nodes = (
(214,500,l),
(221,251,l),
(332,250,l),
(324,499,l)
);
},
{
closed = 1;
nodes = (
(218,679,l),
(217,430,l),
(328,425,l),
(328,674,l)
);
},
{
closed = 1;
nodes = (
(279,677,l),
(30,679,l),
(25,568,l),
(274,568,l)
);
},
{
closed = 1;
nodes = (
(504,678,l),
(255,671,l),
(254,560,l),
(503,568,l)
);
}
);
width = 542;
},
{
layerId = "A1660191-6A08-4E85-BAD2-45B604C2F82B";
shapes = (
{
closed = 1;
nodes = (
(229,348,l),
(233,264,l),
(331,248,l),
(331,343,l)
);
},
{
closed = 1;
nodes = (
(213,502,l),
(221,253,l),
(333,248,l),
(323,497,l)
);
},
{
closed = 1;
nodes = (
(216,478,l),
(216,385,l),
(312,385,l),
(312,478,l)
);
},
{
closed = 1;
nodes = (
(279,676,l),
(30,680,l),
(25,568,l),
(274,568,l)
);
},
{
closed = 1;
nodes = (
(506,679,l),
(257,671,l),
(252,559,l),
(501,569,l)
);
}
);
width = 542;
},
{
layerId = "1AEC2AE6-7FD3-416F-AB62-5405269463F6";
shapes = (
{
closed = 1;
nodes = (
(262,210,l),
(267,51,l),
(288,50,l),
(282,209,l)
);
},
{
closed = 1;
nodes = (
(260,455,l),
(265,296,l),
(286,295,l),
(280,454,l)
);
},
{
closed = 1;
nodes = (
(260,679,l),
(259,430,l),
(279,430,l),
(279,679,l)
);
},
{
closed = 1;
nodes = (
(232,632,l),
(73,634,l),
(72,613,l),
(231,613,l)
);
},
{
closed = 1;
nodes = (
(459,632,l),
(300,627,l),
(299,606,l),
(458,612,l)
);
}
);
width = 542;
},
{
layerId = "B466964A-22F3-4054-88BE-B6989E35C817";
shapes = (
{
closed = 1;
nodes = (
(266,301,l),
(265,296,l),
(286,295,l),
(286,300,l)
);
},
{
closed = 1;
nodes = (
(260,455,l),
(265,296,l),
(286,295,l),
(280,454,l)
);
},
{
closed = 1;
nodes = (
(261,433,l),
(261,430,l),
(281,430,l),
(280,433,l)
);
},
{
closed = 1;
nodes = (
(232,632,l),
(73,634,l),
(72,613,l),
(231,613,l)
);
},
{
closed = 1;
nodes = (
(459,632,l),
(300,627,l),
(299,606,l),
(458,612,l)
);
}
);
width = 542;
}
);
note = T;
unicode = (84,116);
},
{
glyphname = U;
kernLeft = U;
kernRight = U;
lastChange = "2025-10-03 19:41:15 +0000";
layers = (
{
layerId = m01;
shapes = (
{
closed = 1;
nodes = (
(87,680,l),
(86,427,l),
(197,422,l),
(198,675,l)
);
},
{
closed = 1;
nodes = (
(81,429,l),
(80,176,l),
(191,171,l),
(192,424,l)
);
},
{
closed = 1;
nodes = (
(442,675,l),
(441,422,l),
(552,417,l),
(553,670,l)
);
},
{
closed = 1;
nodes = (
(444,424,l),
(443,165,l),
(554,160,l),
(555,419,l)
);
},
{
closed = 1;
nodes = (
(272,90,l),
(158,212,l),
(76,138,l),
(190,14,l)
);
},
{
closed = 1;
nodes = (
(421,113,l),
(209,116,l),
(203,6,l),
(416,2,l)
);
},
{
closed = 1;
nodes = (
(554,135,l),
(472,209,l),
(357,74,l),
(439,-2,l)
);
}
);
width = 637;
},
{
layerId = "A1660191-6A08-4E85-BAD2-45B604C2F82B";
shapes = (
{
closed = 1;
nodes = (
(89,421,l),
(89,325,l),
(184,325,l),
(184,416,l)
);
},
{
closed = 1;
nodes = (
(81,429,l),
(80,176,l),
(191,171,l),
(192,424,l)
);
},
{
closed = 1;
nodes = (
(442,675,l),
(441,422,l),
(552,417,l),
(553,670,l)
);
},
{
closed = 1;
nodes = (
(425,142,l),
(399,114,l),
(521,108,l),
(526,136,l)
);
},
{
closed = 1;
nodes = (
(190,272,l),
(182,291,l),
(101,215,l),
(109,196,l)
);
},
{
closed = 1;
nodes = (
(451,138,l),
(426,134,l),
(415,29,l),
(445,22,l)
);
},
{
closed = 1;
nodes = (
(555,136,l),
(471,209,l),
(357,74,l),
(439,-2,l)
);
}
);
width = 637;
},
{
layerId = "1AEC2AE6-7FD3-416F-AB62-5405269463F6";
shapes = (
{
closed = 1;
nodes = (
(132,633,l),
(131,470,l),
(152,469,l),
(153,632,l)
);
},
{
closed = 1;
nodes = (
(126,382,l),
(125,219,l),
(146,218,l),
(147,381,l)
);
},
{
closed = 1;
nodes = (
(487,628,l),
(486,465,l),
(507,464,l),
(508,627,l)
);
},
{
closed = 1;
nodes = (
(489,377,l),
(488,208,l),
(509,207,l),
(510,376,l)
);
},
{
closed = 1;
nodes = (
(208,92,l),
(155,149,l),
(140,135,l),
(193,78,l)
);
},
{
closed = 1;
nodes = (
(374,69,l),
(252,70,l),
(250,50,l),
(373,48,l)
);
},
{
closed = 1;
nodes = (
(492,131,l),
(476,145,l),
(419,78,l),
(435,63,l)
);
}
);
width = 637;
},
{
layerId = "B466964A-22F3-4054-88BE-B6989E35C817";
shapes = (
{
closed = 1;
nodes = (
(127,374,l),
(126,368,l),
(147,367,l),
(146,373,l)
);
},
{
closed = 1;
nodes = (
(126,382,l),
(125,219,l),
(146,218,l),
(147,381,l)
);
},
{
closed = 1;
nodes = (
(487,628,l),
(486,465,l),
(507,464,l),
(508,627,l)
);
},
{
closed = 1;
nodes = (
(465,131,l),
(462,122,l),
(483,121,l),
(484,130,l)
);
},
{
closed = 1;
nodes = (
(146,242,l),
(141,247,l),
(126,233,l),
(131,228,l)
);
},
{
closed = 1;
nodes = (
(442,93,l),
(434,94,l),
(432,74,l),
(441,72,l)
);
},
{
closed = 1;
nodes = (
(492,131,l),
(476,145,l),
(419,78,l),
(435,63,l)
);
}
);
width = 637;
}
);
note = U;
unicode = (85,117);
},
{
glyphname = V;
kernLeft = V;
kernRight = V;
lastChange = "2025-10-03 19:41:15 +0000";
layers = (
{
layerId = m01;
shapes = (
{
closed = 1;
nodes = (
(34,663,l),
(120,425,l),
(226,459,l),
(140,697,l)
);
},
{
closed = 1;
nodes = (
(186,233,l),
(272,-5,l),
(378,29,l),
(292,267,l)
);
},
{
closed = 1;
nodes = (
(115,453,l),
(201,215,l),
(307,249,l),
(221,487,l)
);
},
{
closed = 1;
nodes = (
(413,459,l),
(519,425,l),
(605,663,l),
(499,697,l)
);
},
{
closed = 1;
nodes = (
(259,29,l),
(365,-5,l),
(451,233,l),
(345,267,l)
);
},
{
closed = 1;
nodes = (
(342,249,l),
(448,215,l),
(534,453,l),
(428,487,l)
);
}
);
width = 633;
},
{
layerId = "A1660191-6A08-4E85-BAD2-45B604C2F82B";
shapes = (
{
closed = 1;
nodes = (
(122,433,l),
(159,345,l),
(257,386,l),
(218,477,l)
);
},
{
closed = 1;
nodes = (
(164,314,l),
(207,227,l),
(302,267,l),
(264,356,l)
);
},
{
closed = 1;
nodes = (
(115,451,l),
(202,214,l),
(307,251,l),
(220,488,l)
);
},
{
closed = 1;
nodes = (
(413,461,l),
(518,424,l),
(605,661,l),
(500,698,l)
);
},
{
closed = 1;
nodes = (
(259,31,l),
(364,-6,l),
(451,231,l),
(346,268,l)
);
},
{
closed = 1;
nodes = (
(419,473,l),
(517,434,l),
(555,525,l),
(455,564,l)
);
}
);
width = 633;
},
{
layerId = "1AEC2AE6-7FD3-416F-AB62-5405269463F6";
shapes = (
{
closed = 1;
nodes = (
(92,634,l),
(148,481,l),
(168,488,l),
(112,641,l)
);
},
{
closed = 1;
nodes = (
(244,204,l),
(300,51,l),
(320,58,l),
(264,211,l)
);
},
{
closed = 1;
nodes = (
(173,424,l),
(229,271,l),
(249,278,l),
(193,431,l)
);
},
{
closed = 1;
nodes = (
(471,488,l),
(491,481,l),
(547,634,l),
(527,641,l)
);
},
{
closed = 1;
nodes = (
(317,58,l),
(337,51,l),
(393,204,l),
(373,211,l)
);
},
{
closed = 1;
nodes = (
(400,278,l),
(420,271,l),
(476,424,l),
(456,431,l)
);
}
);
width = 633;
},
{
layerId = "B466964A-22F3-4054-88BE-B6989E35C817";
shapes = (
{
closed = 1;
nodes = (
(178,412,l),
(182,403,l),
(199,410,l),
(195,419,l)
);
},
{
closed = 1;
nodes = (
(222,291,l),
(226,284,l),
(243,291,l),
(240,298,l)
);
},
{
closed = 1;
nodes = (
(173,424,l),
(229,271,l),
(249,278,l),
(193,431,l)
);
},
{
closed = 1;
nodes = (
(471,488,l),
(491,481,l),
(547,634,l),
(527,641,l)
);
},
{
closed = 1;
nodes = (
(317,58,l),
(337,51,l),
(393,204,l),
(373,211,l)
);
},
{
closed = 1;
nodes = (
(475,498,l),
(493,491,l),
(497,500,l),
(479,507,l)
);
}
);
width = 633;
}
);
note = V;
unicode = (86,118);
},
{
glyphname = W;
kernLeft = W;
kernRight = W;
lastChange = "2025-10-03 19:41:15 +0000";
layers = (
{
layerId = m01;
shapes = (
{
closed = 1;
nodes = (
(410,672,l),
(453,423,l),
(557,434,l),
(513,683,l)
);
},
{
closed = 1;
nodes = (
(498,220,l),
(541,-6,l),
(631,4,l),
(587,230,l)
);
},
{
closed = 1;
nodes = (
(451,444,l),
(495,195,l),
(597,213,l),
(553,462,l)
);
},
{
closed = 1;
nodes = (
(661,413,l),
(769,388,l),
(838,662,l),
(730,686,l)
);
},
{
closed = 1;
nodes = (
(561,15,l),
(670,-9,l),
(718,191,l),
(610,216,l)
);
},
{
closed = 1;
nodes = (
(608,197,l),
(717,173,l),
(782,417,l),
(673,442,l)
);
},
{
closed = 1;
nodes = (
(13,660,l),
(65,413,l),
(175,432,l),
(122,679,l)
);
},
{
closed = 1;
nodes = (
(104,213,l),
(155,-11,l),
(265,8,l),
(213,232,l)
);
},
{
closed = 1;
nodes = (
(64,441,l),
(116,194,l),
(226,212,l),
(173,460,l)
);
},
{
closed = 1;
nodes = (
(288,409,l),
(389,393,l),
(448,669,l),
(347,685,l)
);
},
{
closed = 1;
nodes = (
(198,12,l),
(295,-1,l),
(336,201,l),
(240,215,l)
);
},
{
closed = 1;
nodes = (
(234,197,l),
(337,176,l),
(394,423,l),
(291,444,l)
);
}
);
width = 841;
},
{
layerId = "A1660191-6A08-4E85-BAD2-45B604C2F82B";
shapes = (
{
closed = 1;
nodes = (
(403,668,l),
(446,419,l),
(558,434,l),
(513,684,l)
);
},
{
closed = 1;
nodes = (
(486,218,l),
(529,-8,l),
(640,7,l),
(596,234,l)
);
},
{
closed = 1;
nodes = (
(488,208,l),
(506,117,l),
(615,135,l),
(597,226,l)
);
},
{
closed = 1;
nodes = (
(652,342,l),
(748,321,l),
(775,406,l),
(678,434,l)
);
},
{
closed = 1;
nodes = (
(612,204,l),
(708,176,l),
(738,266,l),
(637,294,l)
);
},
{
closed = 1;
nodes = (
(609,198,l),
(717,172,l),
(783,420,l),
(672,440,l)
);
},
{
closed = 1;
nodes = (
(13,661,l),
(65,414,l),
(175,430,l),
(122,678,l)
);
},
{
closed = 1;
nodes = (
(103,215,l),
(154,-9,l),
(265,6,l),
(214,230,l)
);
},
{
closed = 1;
nodes = (
(49,518,l),
(68,420,l),
(167,443,l),
(148,535,l)
);
},
{
closed = 1;
nodes = (
(270,346,l),
(380,330,l),
(399,418,l),
(289,434,l)
);
},
{
closed = 1;
nodes = (
(234,197,l),
(344,174,l),
(365,268,l),
(255,291,l)
);
},
{
closed = 1;
nodes = (
(235,196,l),
(344,176,l),
(401,424,l),
(291,444,l)
);
}
);
width = 841;
},
{
layerId = "1AEC2AE6-7FD3-416F-AB62-5405269463F6";
shapes = (
{
closed = 1;
nodes = (
(455,630,l),
(483,469,l),
(505,472,l),
(476,633,l)
);
},
{
closed = 1;
nodes = (
(539,180,l),
(565,42,l),
(587,45,l),
(560,183,l)
);
},
{
closed = 1;
nodes = (
(495,409,l),
(524,248,l),
(545,251,l),
(516,412,l)
);
},
{
closed = 1;
nodes = (
(716,446,l),
(736,442,l),
(783,628,l),
(763,633,l)
);
},
{
closed = 1;
nodes = (
(616,49,l),
(637,44,l),
(664,157,l),
(643,162,l)
);
},
{
closed = 1;
nodes = (
(664,231,l),
(685,226,l),
(727,384,l),
(705,388,l)
);
},
{
closed = 1;
nodes = (
(67,624,l),
(100,465,l),
(121,468,l),
(87,627,l)
);
},
{
closed = 1;
nodes = (
(158,177,l),
(189,41,l),
(210,44,l),
(179,180,l)
);
},
{
closed = 1;
nodes = (
(118,405,l),
(151,245,l),
(172,249,l),
(138,408,l)
);
},
{
closed = 1;
nodes = (
(334,449,l),
(354,446,l),
(394,634,l),
(374,637,l)
);
},
{
closed = 1;
nodes = (
(247,49,l),
(268,45,l),
(291,159,l),
(271,163,l)
);
},
{
closed = 1;
nodes = (
(288,232,l),
(310,228,l),
(347,388,l),
(325,392,l)
);
}
);
width = 841;
},
{
layerId = "B466964A-22F3-4054-88BE-B6989E35C817";
shapes = (
{
closed = 1;
nodes = (
(455,630,l),
(483,469,l),
(505,472,l),
(476,633,l)
);
},
{
closed = 1;
nodes = (
(539,180,l),
(565,42,l),
(587,45,l),
(560,183,l)
);
},
{
closed = 1;
nodes = (
(542,173,l),
(544,168,l),
(562,171,l),
(560,176,l)
);
},
{
closed = 1;
nodes = (
(703,376,l),
(723,372,l),
(725,376,l),
(705,381,l)
);
},
{
closed = 1;
nodes = (
(665,234,l),
(684,229,l),
(687,235,l),
(667,240,l)
);
},
{
closed = 1;
nodes = (
(664,231,l),
(685,226,l),
(727,384,l),
(705,388,l)
);
},
{
closed = 1;
nodes = (
(67,624,l),
(100,465,l),
(121,468,l),
(87,627,l)
);
},
{
closed = 1;
nodes = (
(158,177,l),
(189,41,l),
(210,44,l),
(179,180,l)
);
},
{
closed = 1;
nodes = (
(99,481,l),
(100,473,l),
(118,477,l),
(116,484,l)
);
},
{
closed = 1;
nodes = (
(324,381,l),
(344,378,l),
(344,380,l),
(324,383,l)
);
},
{
closed = 1;
nodes = (
(290,234,l),
(309,230,l),
(310,232,l),
(291,236,l)
);
},
{
closed = 1;
nodes = (
(289,232,l),
(310,228,l),
(347,388,l),
(325,392,l)
);
}
);
width = 841;
}
);
note = W;
unicode = (87,119);
},
{
glyphname = X;
kernLeft = X;
kernRight = X;
lastChange = "2025-10-03 19:41:15 +0000";
layers = (
{
layerId = m01;
shapes = (
{
closed = 1;
nodes = (
(53,648,l),
(206,397,l),
(303,453,l),
(149,704,l)
);
},
{
closed = 1;
nodes = (
(311,223,l),
(466,-24,l),
(562,32,l),
(408,279,l)
);
},
{
closed = 1;
nodes = (
(190,424,l),
(323,209,l),
(423,264,l),
(289,479,l)
);
},
{
closed = 1;
nodes = (
(269,427,l),
(366,371,l),
(552,652,l),
(456,708,l)
);
},
{
closed = 1;
nodes = (
(43,36,l),
(139,-20,l),
(341,297,l),
(244,353,l)
);
}
);
width = 605;
},
{
layerId = "A1660191-6A08-4E85-BAD2-45B604C2F82B";
shapes = (
{
closed = 1;
nodes = (
(193,419,l),
(245,329,l),
(342,389,l),
(283,477,l)
);
},
{
closed = 1;
nodes = (
(246,285,l),
(327,219,l),
(412,267,l),
(362,352,l)
);
},
{
closed = 1;
nodes = (
(190,425,l),
(324,208,l),
(423,265,l),
(288,479,l)
);
},
{
closed = 1;
nodes = (
(209,401,l),
(267,312,l),
(343,375,l),
(294,462,l)
);
},
{
closed = 1;
nodes = (
(42,35,l),
(139,-19,l),
(342,299,l),
(243,351,l)
);
}
);
width = 605;
},
{
layerId = "1AEC2AE6-7FD3-416F-AB62-5405269463F6";
shapes = (
{
closed = 1;
nodes = (
(115,632,l),
(222,458,l),
(240,469,l),
(134,643,l)
);
},
{
closed = 1;
nodes = (
(374,207,l),
(481,37,l),
(499,48,l),
(393,218,l)
);
},
{
closed = 1;
nodes = (
(253,408,l),
(339,269,l),
(360,281,l),
(273,419,l)
);
},
{
closed = 1;
nodes = (
(333,442,l),
(352,431,l),
(488,637,l),
(470,648,l)
);
},
{
closed = 1;
nodes = (
(106,51,l),
(124,41,l),
(278,282,l),
(259,292,l)
);
}
);
width = 605;
},
{
layerId = "B466964A-22F3-4054-88BE-B6989E35C817";
shapes = (
{
closed = 1;
nodes = (
(256,406,l),
(262,397,l),
(280,408,l),
(273,417,l)
);
},
{
closed = 1;
nodes = (
(331,282,l),
(340,276,l),
(356,285,l),
(350,293,l)
);
},
{
closed = 1;
nodes = (
(253,408,l),
(339,269,l),
(360,281,l),
(273,419,l)
);
},
{
closed = 1;
nodes = (
(270,389,l),
(287,376,l),
(293,381,l),
(277,394,l)
);
},
{
closed = 1;
nodes = (
(106,51,l),
(124,41,l),
(278,282,l),
(259,292,l)
);
}
);
width = 605;
}
);
note = X;
unicode = (88,120);
},
{
glyphname = Y;
kernLeft = Y;
kernRight = Y;
lastChange = "2025-10-03 19:41:15 +0000";
layers = (
{
layerId = m01;
shapes = (
{
closed = 1;
nodes = (
(16,660,l),
(164,455,l),
(257,516,l),
(109,722,l)
);
},
{
closed = 1;
nodes = (
(138,497,l),
(269,296,l),
(362,357,l),
(231,559,l)
);
},
{
closed = 1;
nodes = (
(485,720,l),
(275,430,l),
(364,363,l),
(575,654,l)
);
},
{
closed = 1;
nodes = (
(248,362,l),
(247,109,l),
(358,104,l),
(360,357,l)
);
},
{
closed = 1;
nodes = (
(243,255,l),
(242,2,l),
(353,-3,l),
(355,250,l)
);
}
);
width = 602;
},
{
layerId = "A1660191-6A08-4E85-BAD2-45B604C2F82B";
shapes = (
{
closed = 1;
nodes = (
(109,726,l),
(56,479,l),
(163,450,l),
(217,698,l)
);
},
{
closed = 1;
nodes = (
(69,526,l),
(68,508,l),
(166,482,l),
(172,501,l)
);
},
{
closed = 1;
nodes = (
(447,728,l),
(302,401,l),
(403,354,l),
(548,683,l)
);
},
{
closed = 1;
nodes = (
(252,97,l),
(258,90,l),
(354,127,l),
(349,136,l)
);
},
{
closed = 1;
nodes = (
(196,221,l),
(298,-11,l),
(401,30,l),
(300,262,l)
);
}
);
width = 602;
},
{
layerId = "1AEC2AE6-7FD3-416F-AB62-5405269463F6";
shapes = (
{
closed = 1;
nodes = (
(80,648,l),
(175,516,l),
(193,528,l),
(98,660,l)
);
},
{
closed = 1;
nodes = (
(200,484,l),
(282,358,l),
(300,370,l),
(218,496,l)
);
},
{
closed = 1;
nodes = (
(495,657,l),
(337,439,l),
(354,427,l),
(512,644,l)
);
},
{
closed = 1;
nodes = (
(293,315,l),
(292,152,l),
(313,151,l),
(315,314,l)
);
},
{
closed = 1;
nodes = (
(288,208,l),
(287,45,l),
(308,44,l),
(310,207,l)
);
}
);
width = 602;
},
{
layerId = "B466964A-22F3-4054-88BE-B6989E35C817";
shapes = (
{
closed = 1;
nodes = (
(207,474,l),
(210,469,l),
(228,481,l),
(225,486,l)
);
},
{
closed = 1;
nodes = (
(200,484,l),
(282,358,l),
(300,370,l),
(218,496,l)
);
},
{
closed = 1;
nodes = (
(267,408,l),
(258,402,l),
(273,390,l),
(282,395,l)
);
},
{
closed = 1;
nodes = (
(274,378,l),
(274,372,l),
(293,370,l),
(294,377,l)
);
},
{
closed = 1;
nodes = (
(288,208,l),
(287,45,l),
(308,44,l),
(310,207,l)
);
}
);
width = 602;
}
);
note = Y;
unicode = (89,121);
},
{
glyphname = Z;
kernLeft = Z;
kernRight = Z;
lastChange = "2025-10-03 19:41:15 +0000";
layers = (
{
layerId = m01;
shapes = (
{
closed = 1;
nodes = (
(300,680,l),
(47,681,l),
(42,569,l),
(295,568,l)
);
},
{
closed = 1;
nodes = (
(495,674,l),
(242,675,l),
(237,563,l),
(490,562,l)
);
},
{
closed = 1;
nodes = (
(308,117,l),
(55,118,l),
(50,6,l),
(303,5,l)
);
},
{
closed = 1;
nodes = (
(503,111,l),
(250,112,l),
(245,0,l),
(498,-1,l)
);
},
{
closed = 1;
nodes = (
(391,623,l),
(249,413,l),
(340,346,l),
(482,556,l)
);
},
{
closed = 1;
nodes = (
(253,421,l),
(61,136,l),
(152,69,l),
(344,354,l)
);
}
);
width = 546;
},
{
layerId = "A1660191-6A08-4E85-BAD2-45B604C2F82B";
shapes = (
{
closed = 1;
nodes = (
(341,667,l),
(250,667,l),
(245,571,l),
(342,571,l)
);
},
{
closed = 1;
nodes = (
(495,674,l),
(242,675,l),
(237,563,l),
(490,562,l)
);
},
{
closed = 1;
nodes = (
(352,110,l),
(256,110,l),
(251,1,l),
(347,1,l)
);
},
{
closed = 1;
nodes = (
(503,111,l),
(250,112,l),
(245,0,l),
(498,-1,l)
);
},
{
closed = 1;
nodes = (
(392,664,l),
(376,637,l),
(472,566,l),
(488,593,l)
);
},
{
closed = 1;
nodes = (
(253,421,l),
(61,136,l),
(152,69,l),
(344,354,l)
);
}
);
width = 546;
},
{
layerId = "1AEC2AE6-7FD3-416F-AB62-5405269463F6";
shapes = (
{
closed = 1;
nodes = (
(253,635,l),
(90,636,l),
(89,614,l),
(252,613,l)
);
},
{
closed = 1;
nodes = (
(448,629,l),
(285,630,l),
(284,608,l),
(447,607,l)
);
},
{
closed = 1;
nodes = (
(261,72,l),
(98,73,l),
(97,51,l),
(260,50,l)
);
},
{
closed = 1;
nodes = (
(456,66,l),
(293,67,l),
(292,45,l),
(455,44,l)
);
},
{
closed = 1;
nodes = (
(402,559,l),
(310,424,l),
(329,410,l),
(421,545,l)
);
},
{
closed = 1;
nodes = (
(264,357,l),
(122,147,l),
(141,133,l),
(283,343,l)
);
}
);
width = 546;
},
{
layerId = "B466964A-22F3-4054-88BE-B6989E35C817";
shapes = (
{
closed = 1;
nodes = (
(299,630,l),
(293,629,l),
(292,609,l),
(298,608,l)
);
},
{
closed = 1;
nodes = (
(448,629,l),
(285,630,l),
(284,608,l),
(447,607,l)
);
},
{
closed = 1;
nodes = (
(305,65,l),
(299,65,l),
(298,46,l),
(304,46,l)
);
},
{
closed = 1;
nodes = (
(456,66,l),
(293,67,l),
(292,45,l),
(455,44,l)
);
},
{
closed = 1;
nodes = (
(424,628,l),
(422,621,l),
(441,607,l),
(443,614,l)
);
},
{
closed = 1;
nodes = (
(264,357,l),
(122,147,l),
(141,133,l),
(283,343,l)
);
}
);
width = 546;
}
);
note = Z;
unicode = (90,122);
},
{
glyphname = zero;
layers = (
{
layerId = m01;
shapes = (
{
closed = 1;
nodes = (
(494,385,l),
(594,432,l),
(477,661,l),
(374,612,l)
);
},
{
closed = 1;
nodes = (
(171,669,l),
(42,447,l),
(142,400,l),
(274,620,l)
);
},
{
closed = 1;
nodes = (
(443,677,l),
(196,680,l),
(202,568,l),
(448,563,l)
);
},
{
closed = 1;
nodes = (
(484,21,l),
(603,255,l),
(499,294,l),
(377,61,l)
);
},
{
closed = 1;
nodes = (
(147,282,l),
(47,235,l),
(157,25,l),
(260,74,l)
);
},
{
closed = 1;
nodes = (
(484,253,l),
(595,245,l),
(593,420,l),
(478,427,l)
);
},
{
closed = 1;
nodes = (
(37,430,l),
(38,239,l),
(150,246,l),
(151,437,l)
);
},
{
closed = 1;
nodes = (
(447,111,l),
(186,114,l),
(192,2,l),
(449,4,l)
);
}
);
width = 646;
},
{
layerId = "A1660191-6A08-4E85-BAD2-45B604C2F82B";
shapes = (
{
closed = 1;
nodes = (
(494,385,l),
(594,432,l),
(477,661,l),
(374,612,l)
);
},
{
closed = 1;
nodes = (
(45,412,l),
(37,342,l),
(127,297,l),
(146,363,l)
);
},
{
closed = 1;
nodes = (
(467,639,l),
(420,626,l),
(425,524,l),
(472,514,l)
);
},
{
closed = 1;
nodes = (
(423,12,l),
(436,54,l),
(338,89,l),
(310,56,l)
);
},
{
closed = 1;
nodes = (
(149,353,l),
(45,304,l),
(50,250,l),
(146,303,l)
);
},
{
closed = 1;
nodes = (
(461,461,l),
(579,450,l),
(561,484,l),
(456,489,l)
);
},
{
closed = 1;
nodes = (
(37,431,l),
(38,242,l),
(150,242,l),
(151,436,l)
);
},
{
closed = 1;
nodes = (
(448,112,l),
(187,113,l),
(192,2,l),
(448,2,l)
);
}
);
width = 646;
},
{
layerId = "1AEC2AE6-7FD3-416F-AB62-5405269463F6";
shapes = (
{
closed = 1;
nodes = (
(514,444,l),
(533,453,l),
(457,602,l),
(436,592,l)
);
},
{
closed = 1;
nodes = (
(189,611,l),
(106,467,l),
(124,458,l),
(210,601,l)
);
},
{
closed = 1;
nodes = (
(400,633,l),
(244,634,l),
(245,612,l),
(401,609,l)
);
},
{
closed = 1;
nodes = (
(462,77,l),
(540,231,l),
(520,238,l),
(441,85,l)
);
},
{
closed = 1;
nodes = (
(128,223,l),
(109,214,l),
(177,84,l),
(198,94,l)
);
},
{
closed = 1;
nodes = (
(528,295,l),
(549,293,l),
(548,378,l),
(525,379,l)
);
},
{
closed = 1;
nodes = (
(82,388,l),
(83,287,l),
(105,288,l),
(106,389,l)
);
},
{
closed = 1;
nodes = (
(403,67,l),
(234,68,l),
(235,47,l),
(403,49,l)
);
}
);
width = 646;
},
{
layerId = "B466964A-22F3-4054-88BE-B6989E35C817";
shapes = (
{
closed = 1;
nodes = (
(514,444,l),
(533,453,l),
(457,602,l),
(436,592,l)
);
},
{
closed = 1;
nodes = (
(85,381,l),
(84,369,l),
(102,360,l),
(106,371,l)
);
},
{
closed = 1;
nodes = (
(457,593,l),
(448,592,l),
(449,570,l),
(458,569,l)
);
},
{
closed = 1;
nodes = (
(392,50,l),
(394,57,l),
(374,64,l),
(371,58,l)
);
},
{
closed = 1;
nodes = (
(103,312,l),
(84,303,l),
(87,294,l),
(105,304,l)
);
},
{
closed = 1;
nodes = (
(506,459,l),
(527,457,l),
(526,465,l),
(506,466,l)
);
},
{
closed = 1;
nodes = (
(82,388,l),
(83,287,l),
(105,287,l),
(106,389,l)
);
},
{
closed = 1;
nodes = (
(403,67,l),
(234,68,l),
(235,47,l),
(403,47,l)
);
}
);
width = 646;
}
);
note = zero;
unicode = 48;
},
{
glyphname = one;
layers = (
{
layerId = m01;
shapes = (
{
closed = 1;
nodes = (
(293,677,l),
(293,428,l),
(403,423,l),
(403,672,l)
);
},
{
closed = 1;
nodes = (
(293,253,l),
(293,4,l),
(403,-1,l),
(403,248,l)
);
},
{
closed = 1;
nodes = (
(295,475,l),
(295,226,l),
(405,221,l),
(405,470,l)
);
},
{
closed = 1;
nodes = (
(513,96,l),
(180,100,l),
(175,-3,l),
(508,-7,l)
);
},
{
closed = 1;
nodes = (
(363,684,l),
(147,560,l),
(198,463,l),
(414,586,l)
);
}
);
width = 646;
},
{
layerId = "A1660191-6A08-4E85-BAD2-45B604C2F82B";
shapes = (
{
closed = 1;
nodes = (
(277,619,l),
(269,583,l),
(381,577,l),
(389,613,l)
);
},
{
closed = 1;
nodes = (
(293,253,l),
(293,4,l),
(403,-1,l),
(403,248,l)
);
},
{
closed = 1;
nodes = (
(293,248,l),
(293,150,l),
(402,145,l),
(403,243,l)
);
},
{
closed = 1;
nodes = (
(401,106,l),
(300,126,l),
(294,16,l),
(399,2,l)
);
},
{
closed = 1;
nodes = (
(364,685,l),
(148,561,l),
(197,462,l),
(413,586,l)
);
}
);
width = 646;
},
{
layerId = "1AEC2AE6-7FD3-416F-AB62-5405269463F6";
shapes = (
{
closed = 1;
nodes = (
(338,630,l),
(338,471,l),
(358,470,l),
(358,629,l)
);
},
{
closed = 1;
nodes = (
(338,206,l),
(338,47,l),
(358,46,l),
(358,205,l)
);
},
{
closed = 1;
nodes = (
(340,428,l),
(340,269,l),
(360,268,l),
(360,427,l)
);
},
{
closed = 1;
nodes = (
(466,52,l),
(223,54,l),
(222,35,l),
(465,33,l)
);
},
{
closed = 1;
nodes = (
(345,622,l),
(207,543,l),
(216,525,l),
(354,604,l)
);
}
);
width = 646;
},
{
layerId = "B466964A-22F3-4054-88BE-B6989E35C817";
shapes = (
{
closed = 1;
nodes = (
(330,611,l),
(328,603,l),
(348,602,l),
(350,610,l)
);
},
{
closed = 1;
nodes = (
(338,206,l),
(338,47,l),
(358,46,l),
(358,205,l)
);
},
{
closed = 1;
nodes = (
(338,201,l),
(338,193,l),
(358,192,l),
(358,200,l)
);
},
{
closed = 1;
nodes = (
(358,69,l),
(342,72,l),
(341,53,l),
(357,50,l)
);
},
{
closed = 1;
nodes = (
(345,622,l),
(207,543,l),
(216,525,l),
(354,604,l)
);
}
);
width = 646;
}
);
note = one;
unicode = 49;
},
{
glyphname = two;
layers = (
{
layerId = m01;
shapes = (
{
closed = 1;
nodes = (
(465,477,l),
(296,278,l),
(377,203,l),
(546,402,l)
);
},
{
closed = 1;
nodes = (
(309,297,l),
(119,137,l),
(185,49,l),
(376,209,l)
);
},
{
closed = 1;
nodes = (
(340,117,l),
(92,117,l),
(86,7,l),
(335,7,l)
);
},
{
closed = 1;
nodes = (
(567,114,l),
(319,114,l),
(313,4,l),
(562,4,l)
);
},
{
closed = 1;
nodes = (
(433,631,l),
(432,381,l),
(543,376,l),
(543,625,l)
);
},
{
closed = 1;
nodes = (
(267,601,l),
(501,514,l),
(545,617,l),
(311,702,l)
);
},
{
closed = 1;
nodes = (
(144,481,l),
(361,604,l),
(311,704,l),
(95,580,l)
);
},
{
closed = 1;
nodes = (
(199,445,l),
(208,551,l),
(97,558,l),
(89,452,l)
);
}
);
width = 646;
},
{
layerId = "A1660191-6A08-4E85-BAD2-45B604C2F82B";
shapes = (
{
closed = 1;
nodes = (
(473,507,l),
(441,485,l),
(537,395,l),
(539,447,l)
);
},
{
closed = 1;
nodes = (
(309,297,l),
(119,137,l),
(186,49,l),
(376,209,l)
);
},
{
closed = 1;
nodes = (
(340,117,l),
(92,117,l),
(87,7,l),
(335,7,l)
);
},
{
closed = 1;
nodes = (
(331,117,l),
(237,117,l),
(232,7,l),
(326,7,l)
);
},
{
closed = 1;
nodes = (
(433,630,l),
(432,381,l),
(543,376,l),
(543,625,l)
);
},
{
closed = 1;
nodes = (
(434,530,l),
(486,496,l),
(536,607,l),
(475,621,l)
);
},
{
closed = 1;
nodes = (
(144,482,l),
(362,604,l),
(310,703,l),
(95,580,l)
);
},
{
closed = 1;
nodes = (
(211,519,l),
(271,555,l),
(174,613,l),
(108,564,l)
);
}
);
width = 646;
},
{
layerId = "1AEC2AE6-7FD3-416F-AB62-5405269463F6";
shapes = (
{
closed = 1;
nodes = (
(469,412,l),
(358,282,l),
(373,268,l),
(484,398,l)
);
},
{
closed = 1;
nodes = (
(302,232,l),
(181,130,l),
(193,114,l),
(314,216,l)
);
},
{
closed = 1;
nodes = (
(293,72,l),
(135,72,l),
(134,52,l),
(292,52,l)
);
},
{
closed = 1;
nodes = (
(520,69,l),
(362,69,l),
(361,49,l),
(519,49,l)
);
},
{
closed = 1;
nodes = (
(478,583,l),
(477,424,l),
(498,423,l),
(498,582,l)
);
},
{
closed = 1;
nodes = (
(327,627,l),
(476,571,l),
(485,591,l),
(335,645,l)
);
},
{
closed = 1;
nodes = (
(163,544,l),
(302,622,l),
(292,641,l),
(154,562,l)
);
},
{
closed = 1;
nodes = (
(158,493,l),
(159,509,l),
(139,510,l),
(137,494,l)
);
}
);
width = 646;
},
{
layerId = "B466964A-22F3-4054-88BE-B6989E35C817";
shapes = (
{
closed = 1;
nodes = (
(486,449,l),
(478,443,l),
(493,429,l),
(498,438,l)
);
},
{
closed = 1;
nodes = (
(302,232,l),
(181,130,l),
(193,114,l),
(314,216,l)
);
},
{
closed = 1;
nodes = (
(293,72,l),
(135,72,l),
(134,52,l),
(292,52,l)
);
},
{
closed = 1;
nodes = (
(284,72,l),
(280,72,l),
(279,52,l),
(283,52,l)
);
},
{
closed = 1;
nodes = (
(478,583,l),
(477,424,l),
(498,423,l),
(498,582,l)
);
},
{
closed = 1;
nodes = (
(480,556,l),
(489,551,l),
(498,571,l),
(488,574,l)
);
},
{
closed = 1;
nodes = (
(163,544,l),
(302,622,l),
(292,641,l),
(154,562,l)
);
},
{
closed = 1;
nodes = (
(174,551,l),
(186,562,l),
(171,571,l),
(158,558,l)
);
}
);
width = 646;
}
);
note = two;
unicode = 50;
},
{
glyphname = three;
layers = (
{
layerId = m01;
shapes = (
{
closed = 1;
nodes = (
(466,413,l),
(259,414,l),
(254,303,l),
(460,303,l)
);
},
{
closed = 1;
nodes = (
(562,279,l),
(452,380,l),
(376,297,l),
(486,198,l)
);
},
{
closed = 1;
nodes = (
(465,20,l),
(576,232,l),
(481,292,l),
(372,82,l)
);
},
{
closed = 1;
nodes = (
(211,1,l),
(457,1,l),
(462,113,l),
(219,113,l)
);
},
{
closed = 1;
nodes = (
(74,164,l),
(207,5,l),
(296,73,l),
(164,230,l)
);
},
{
closed = 1;
nodes = (
(371,402,l),
(460,334,l),
(556,471,l),
(467,538,l)
);
},
{
closed = 1;
nodes = (
(471,439,l),
(566,499,l),
(462,679,l),
(369,617,l)
);
},
{
closed = 1;
nodes = (
(455,576,l),
(450,688,l),
(203,688,l),
(211,576,l)
);
},
{
closed = 1;
nodes = (
(288,612,l),
(199,680,l),
(66,521,l),
(156,455,l)
);
}
);
width = 646;
},
{
layerId = "A1660191-6A08-4E85-BAD2-45B604C2F82B";
shapes = (
{
closed = 1;
nodes = (
(465,413,l),
(259,414,l),
(254,303,l),
(460,303,l)
);
},
{
closed = 1;
nodes = (
(483,371,l),
(407,428,l),
(330,346,l),
(406,304,l)
);
},
{
closed = 1;
nodes = (
(464,19,l),
(576,232,l),
(480,292,l),
(373,83,l)
);
},
{
closed = 1;
nodes = (
(190,36,l),
(291,69,l),
(229,150,l),
(134,112,l)
);
},
{
closed = 1;
nodes = (
(73,164,l),
(207,5,l),
(296,73,l),
(165,230,l)
);
},
{
closed = 1;
nodes = (
(371,401,l),
(460,334,l),
(556,471,l),
(467,538,l)
);
},
{
closed = 1;
nodes = (
(370,577,l),
(450,630,l),
(406,681,l),
(311,636,l)
);
},
{
closed = 1;
nodes = (
(455,576,l),
(450,688,l),
(202,688,l),
(212,576,l)
);
},
{
closed = 1;
nodes = (
(340,636,l),
(255,688,l),
(211,630,l),
(280,576,l)
);
}
);
width = 646;
},
{
layerId = "1AEC2AE6-7FD3-416F-AB62-5405269463F6";
shapes = (
{
closed = 1;
nodes = (
(418,368,l),
(302,369,l),
(301,348,l),
(417,348,l)
);
},
{
closed = 1;
nodes = (
(498,277,l),
(455,316,l),
(440,300,l),
(483,261,l)
);
},
{
closed = 1;
nodes = (
(448,85,l),
(517,216,l),
(498,228,l),
(431,97,l)
);
},
{
closed = 1;
nodes = (
(259,46,l),
(414,46,l),
(415,68,l),
(261,68,l)
);
},
{
closed = 1;
nodes = (
(139,156,l),
(214,67,l),
(231,80,l),
(157,169,l)
);
},
{
closed = 1;
nodes = (
(433,411,l),
(450,398,l),
(494,461,l),
(477,474,l)
);
},
{
closed = 1;
nodes = (
(487,502,l),
(505,514,l),
(447,615,l),
(429,603,l)
);
},
{
closed = 1;
nodes = (
(408,621,l),
(407,643,l),
(251,643,l),
(253,621,l)
);
},
{
closed = 1;
nodes = (
(223,605,l),
(206,618,l),
(131,529,l),
(149,516,l)
);
}
);
width = 646;
},
{
layerId = "B466964A-22F3-4054-88BE-B6989E35C817";
shapes = (
{
closed = 1;
nodes = (
(418,368,l),
(302,369,l),
(301,348,l),
(417,348,l)
);
},
{
closed = 1;
nodes = (
(416,365,l),
(412,368,l),
(397,352,l),
(401,349,l)
);
},
{
closed = 1;
nodes = (
(448,85,l),
(517,216,l),
(498,228,l),
(431,97,l)
);
},
{
closed = 1;
nodes = (
(210,72,l),
(216,74,l),
(217,96,l),
(212,94,l)
);
},
{
closed = 1;
nodes = (
(139,156,l),
(214,67,l),
(231,80,l),
(157,169,l)
);
},
{
closed = 1;
nodes = (
(433,411,l),
(450,398,l),
(494,461,l),
(477,474,l)
);
},
{
closed = 1;
nodes = (
(386,625,l),
(404,637,l),
(400,641,l),
(382,629,l)
);
},
{
closed = 1;
nodes = (
(408,621,l),
(407,643,l),
(251,643,l),
(253,621,l)
);
},
{
closed = 1;
nodes = (
(276,628,l),
(259,641,l),
(254,636,l),
(272,623,l)
);
}
);
width = 646;
}
);
note = three;
unicode = 51;
},
{
glyphname = four;
layers = (
{
layerId = m01;
shapes = (
{
closed = 1;
nodes = (
(298,159,l),
(293,271,l),
(46,271,l),
(54,159,l)
);
},
{
closed = 1;
nodes = (
(608,157,l),
(603,269,l),
(291,267,l),
(299,155,l)
);
},
{
closed = 1;
nodes = (
(366,373,l),
(478,378,l),
(476,690,l),
(364,682,l)
);
},
{
closed = 1;
nodes = (
(370,-4,l),
(482,1,l),
(478,392,l),
(366,384,l)
);
},
{
closed = 1;
nodes = (
(178,426,l),
(272,366,l),
(450,623,l),
(353,680,l)
);
},
{
closed = 1;
nodes = (
(66,259,l),
(160,199,l),
(337,456,l),
(241,514,l)
);
}
);
width = 646;
},
{
layerId = "A1660191-6A08-4E85-BAD2-45B604C2F82B";
shapes = (
{
closed = 1;
nodes = (
(298,159,l),
(293,271,l),
(45,271,l),
(55,159,l)
);
},
{
closed = 1;
nodes = (
(477,160,l),
(472,272,l),
(365,265,l),
(375,153,l)
);
},
{
closed = 1;
nodes = (
(366,373,l),
(478,378,l),
(476,691,l),
(364,681,l)
);
},
{
closed = 1;
nodes = (
(371,-4,l),
(483,1,l),
(477,393,l),
(365,383,l)
);
},
{
closed = 1;
nodes = (
(179,427,l),
(272,365,l),
(450,624,l),
(352,680,l)
);
},
{
closed = 1;
nodes = (
(176,429,l),
(276,362,l),
(328,459,l),
(245,514,l)
);
}
);
width = 646;
},
{
layerId = "1AEC2AE6-7FD3-416F-AB62-5405269463F6";
shapes = (
{
closed = 1;
nodes = (
(251,204,l),
(250,226,l),
(94,226,l),
(96,204,l)
);
},
{
closed = 1;
nodes = (
(561,202,l),
(560,224,l),
(339,222,l),
(341,200,l)
);
},
{
closed = 1;
nodes = (
(411,420,l),
(433,421,l),
(431,642,l),
(409,640,l)
);
},
{
closed = 1;
nodes = (
(415,43,l),
(437,44,l),
(433,344,l),
(411,342,l)
);
},
{
closed = 1;
nodes = (
(242,439,l),
(260,427,l),
(385,609,l),
(366,620,l)
);
},
{
closed = 1;
nodes = (
(129,272,l),
(148,260,l),
(273,442,l),
(254,454,l)
);
}
);
width = 646;
},
{
layerId = "B466964A-22F3-4054-88BE-B6989E35C817";
shapes = (
{
closed = 1;
nodes = (
(251,204,l),
(250,226,l),
(94,226,l),
(96,204,l)
);
},
{
closed = 1;
nodes = (
(430,202,l),
(429,224,l),
(414,223,l),
(416,201,l)
);
},
{
closed = 1;
nodes = (
(411,420,l),
(433,421,l),
(431,642,l),
(409,640,l)
);
},
{
closed = 1;
nodes = (
(415,43,l),
(437,44,l),
(433,344,l),
(411,342,l)
);
},
{
closed = 1;
nodes = (
(242,439,l),
(260,427,l),
(385,609,l),
(366,620,l)
);
},
{
closed = 1;
nodes = (
(242,439,l),
(260,427,l),
(269,444,l),
(254,454,l)
);
}
);
width = 646;
}
);
note = four;
unicode = 52;
},
{
glyphname = five;
layers = (
{
layerId = m01;
shapes = (
{
closed = 1;
nodes = (
(115,675,l),
(115,323,l),
(227,318,l),
(225,669,l)
);
},
{
closed = 1;
nodes = (
(541,676,l),
(176,676,l),
(172,565,l),
(535,566,l)
);
},
{
closed = 1;
nodes = (
(315,480,l),
(146,401,l),
(198,302,l),
(365,382,l)
);
},
{
closed = 1;
nodes = (
(499,427,l),
(318,475,l),
(294,367,l),
(474,320,l)
);
},
{
closed = 1;
nodes = (
(580,257,l),
(500,427,l),
(402,375,l),
(482,208,l)
);
},
{
closed = 1;
nodes = (
(521,65,l),
(569,247,l),
(461,269,l),
(415,91,l)
);
},
{
closed = 1;
nodes = (
(332,-24,l),
(502,57,l),
(450,154,l),
(283,74,l)
);
},
{
closed = 1;
nodes = (
(147,45,l),
(318,-33,l),
(359,69,l),
(191,145,l)
);
},
{
closed = 1;
nodes = (
(68,196,l),
(149,26,l),
(246,78,l),
(166,244,l)
);
}
);
width = 646;
},
{
layerId = "A1660191-6A08-4E85-BAD2-45B604C2F82B";
shapes = (
{
closed = 1;
nodes = (
(115,674,l),
(115,323,l),
(227,318,l),
(225,669,l)
);
},
{
closed = 1;
nodes = (
(221,668,l),
(120,668,l),
(120,551,l),
(216,563,l)
);
},
{
closed = 1;
nodes = (
(395,447,l),
(304,408,l),
(328,373,l),
(409,427,l)
);
},
{
closed = 1;
nodes = (
(497,428,l),
(320,474,l),
(292,368,l),
(476,319,l)
);
},
{
closed = 1;
nodes = (
(484,400,l),
(469,431,l),
(368,375,l),
(389,353,l)
);
},
{
closed = 1;
nodes = (
(521,64,l),
(568,246,l),
(461,269,l),
(415,92,l)
);
},
{
closed = 1;
nodes = (
(251,5,l),
(339,40,l),
(323,77,l),
(239,27,l)
);
},
{
closed = 1;
nodes = (
(146,46,l),
(319,-34,l),
(358,70,l),
(192,144,l)
);
},
{
closed = 1;
nodes = (
(168,47,l),
(186,36,l),
(282,81,l),
(267,100,l)
);
}
);
width = 646;
},
{
layerId = "1AEC2AE6-7FD3-416F-AB62-5405269463F6";
shapes = (
{
closed = 1;
nodes = (
(160,627,l),
(160,366,l),
(182,365,l),
(180,626,l)
);
},
{
closed = 1;
nodes = (
(493,631,l),
(219,631,l),
(219,610,l),
(492,611,l)
);
},
{
closed = 1;
nodes = (
(295,421,l),
(208,380,l),
(218,361,l),
(304,403,l)
);
},
{
closed = 1;
nodes = (
(445,395,l),
(352,419,l),
(347,400,l),
(441,375,l)
);
},
{
closed = 1;
nodes = (
(521,278,l),
(479,365,l),
(461,355,l),
(503,269,l)
);
},
{
closed = 1;
nodes = (
(489,119,l),
(513,212,l),
(494,216,l),
(470,124,l)
);
},
{
closed = 1;
nodes = (
(353,36,l),
(440,77,l),
(431,95,l),
(344,53,l)
);
},
{
closed = 1;
nodes = (
(206,68,l),
(294,27,l),
(301,46,l),
(214,85,l)
);
},
{
closed = 1;
nodes = (
(128,175,l),
(169,88,l),
(187,97,l),
(145,184,l)
);
}
);
width = 646;
},
{
layerId = "B466964A-22F3-4054-88BE-B6989E35C817";
shapes = (
{
closed = 1;
nodes = (
(160,627,l),
(160,366,l),
(182,365,l),
(180,626,l)
);
},
{
closed = 1;
nodes = (
(174,623,l),
(165,623,l),
(165,602,l),
(173,603,l)
);
},
{
closed = 1;
nodes = (
(361,417,l),
(354,414,l),
(364,395,l),
(370,399,l)
);
},
{
closed = 1;
nodes = (
(445,395,l),
(352,419,l),
(347,400,l),
(441,375,l)
);
},
{
closed = 1;
nodes = (
(442,390,l),
(439,395,l),
(421,385,l),
(424,381,l)
);
},
{
closed = 1;
nodes = (
(489,119,l),
(513,212,l),
(494,216,l),
(470,124,l)
);
},
{
closed = 1;
nodes = (
(288,33,l),
(293,35,l),
(284,53,l),
(279,50,l)
);
},
{
closed = 1;
nodes = (
(206,68,l),
(294,27,l),
(301,46,l),
(214,85,l)
);
},
{
closed = 1;
nodes = (
(211,70,l),
(215,64,l),
(232,72,l),
(228,79,l)
);
}
);
width = 646;
}
);
note = five;
unicode = 53;
},
{
glyphname = six;
layers = (
{
layerId = m01;
shapes = (
{
closed = 1;
nodes = (
(92,468,l),
(95,182,l),
(206,178,l),
(202,462,l)
);
},
{
closed = 1;
nodes = (
(242,0,l),
(447,3,l),
(449,114,l),
(246,111,l)
);
},
{
closed = 1;
nodes = (
(455,-4,l),
(584,155,l),
(500,229,l),
(373,71,l)
);
},
{
closed = 1;
nodes = (
(588,165,l),
(549,366,l),
(439,350,l),
(478,151,l)
);
},
{
closed = 1;
nodes = (
(548,367,l),
(388,467,l),
(330,372,l),
(488,273,l)
);
},
{
closed = 1;
nodes = (
(374,466,l),
(169,388,l),
(203,283,l),
(407,359,l)
);
},
{
closed = 1;
nodes = (
(90,168,l),
(224,13,l),
(312,84,l),
(178,237,l)
);
},
{
closed = 1;
nodes = (
(80,482,l),
(168,411,l),
(309,586,l),
(221,655,l)
);
},
{
closed = 1;
nodes = (
(233,690,l),
(236,577,l),
(440,574,l),
(437,686,l)
);
},
{
closed = 1;
nodes = (
(430,695,l),
(360,606,l),
(523,473,l),
(593,561,l)
);
}
);
width = 646;
},
{
layerId = "A1660191-6A08-4E85-BAD2-45B604C2F82B";
shapes = (
{
closed = 1;
nodes = (
(116,176,l),
(119,147,l),
(229,147,l),
(226,171,l)
);
},
{
closed = 1;
nodes = (
(228,38,l),
(248,39,l),
(248,150,l),
(228,149,l)
);
},
{
closed = 1;
nodes = (
(546,183,l),
(579,217,l),
(495,290,l),
(467,261,l)
);
},
{
closed = 1;
nodes = (
(588,166,l),
(549,366,l),
(439,350,l),
(478,150,l)
);
},
{
closed = 1;
nodes = (
(371,433,l),
(345,445,l),
(289,353,l),
(307,337,l)
);
},
{
closed = 1;
nodes = (
(375,467,l),
(169,388,l),
(202,284,l),
(406,358,l)
);
},
{
closed = 1;
nodes = (
(90,169,l),
(226,11,l),
(311,86,l),
(178,236,l)
);
},
{
closed = 1;
nodes = (
(80,483,l),
(167,410,l),
(309,587,l),
(221,654,l)
);
},
{
closed = 1;
nodes = (
(232,690,l),
(237,576,l),
(441,575,l),
(436,686,l)
);
},
{
closed = 1;
nodes = (
(406,685,l),
(333,591,l),
(351,587,l),
(419,670,l)
);
}
);
width = 646;
},
{
layerId = "1AEC2AE6-7FD3-416F-AB62-5405269463F6";
shapes = (
{
closed = 1;
nodes = (
(138,420,l),
(140,225,l),
(160,225,l),
(158,419,l)
);
},
{
closed = 1;
nodes = (
(289,46,l),
(403,47,l),
(403,68,l),
(289,67,l)
);
},
{
closed = 1;
nodes = (
(450,61,l),
(522,150,l),
(506,164,l),
(435,76,l)
);
},
{
closed = 1;
nodes = (
(535,204,l),
(513,315,l),
(492,312,l),
(514,201,l)
);
},
{
closed = 1;
nodes = (
(486,353,l),
(403,405,l),
(392,387,l),
(474,335,l)
);
},
{
closed = 1;
nodes = (
(345,407,l),
(225,361,l),
(231,342,l),
(351,386,l)
);
},
{
closed = 1;
nodes = (
(155,162,l),
(230,75,l),
(247,90,l),
(172,175,l)
);
},
{
closed = 1;
nodes = (
(143,489,l),
(161,474,l),
(245,579,l),
(228,592,l)
);
},
{
closed = 1;
nodes = (
(279,644,l),
(280,621,l),
(394,620,l),
(393,642,l)
);
},
{
closed = 1;
nodes = (
(437,631,l),
(423,613,l),
(516,537,l),
(530,554,l)
);
}
);
width = 646;
},
{
layerId = "B466964A-22F3-4054-88BE-B6989E35C817";
shapes = (
{
closed = 1;
nodes = (
(163,164,l),
(163,157,l),
(183,157,l),
(183,163,l)
);
},
{
closed = 1;
nodes = (
(227,83,l),
(232,83,l),
(232,104,l),
(227,104,l)
);
},
{
closed = 1;
nodes = (
(525,205,l),
(531,212,l),
(515,226,l),
(510,220,l)
);
},
{
closed = 1;
nodes = (
(535,204,l),
(513,315,l),
(492,312,l),
(514,201,l)
);
},
{
closed = 1;
nodes = (
(345,401,l),
(339,404,l),
(328,386,l),
(333,383,l)
);
},
{
closed = 1;
nodes = (
(345,407,l),
(225,361,l),
(231,342,l),
(351,386,l)
);
},
{
closed = 1;
nodes = (
(155,162,l),
(230,75,l),
(247,90,l),
(172,175,l)
);
},
{
closed = 1;
nodes = (
(143,489,l),
(161,474,l),
(245,579,l),
(228,592,l)
);
},
{
closed = 1;
nodes = (
(279,644,l),
(280,621,l),
(394,620,l),
(393,642,l)
);
},
{
closed = 1;
nodes = (
(385,641,l),
(371,623,l),
(376,620,l),
(390,637,l)
);
}
);
width = 646;
}
);
note = six;
unicode = 54;
},
{
glyphname = seven;
layers = (
{
layerId = m01;
shapes = (
{
closed = 1;
nodes = (
(457,671,l),
(376,464,l),
(478,421,l),
(559,628,l)
);
},
{
closed = 1;
nodes = (
(381,470,l),
(290,226,l),
(392,183,l),
(483,428,l)
);
},
{
closed = 1;
nodes = (
(304,258,l),
(213,13,l),
(315,-30,l),
(406,215,l)
);
},
{
closed = 1;
nodes = (
(577,689,l),
(296,693,l),
(290,583,l),
(571,579,l)
);
},
{
closed = 1;
nodes = (
(329,691,l),
(98,691,l),
(92,581,l),
(329,579,l)
);
}
);
width = 646;
},
{
layerId = "A1660191-6A08-4E85-BAD2-45B604C2F82B";
shapes = (
{
closed = 1;
nodes = (
(379,462,l),
(341,364,l),
(446,320,l),
(477,419,l)
);
},
{
closed = 1;
nodes = (
(381,471,l),
(290,226,l),
(392,183,l),
(483,428,l)
);
},
{
closed = 1;
nodes = (
(332,330,l),
(291,238,l),
(393,195,l),
(434,287,l)
);
},
{
closed = 1;
nodes = (
(326,691,l),
(218,691,l),
(207,581,l),
(315,581,l)
);
},
{
closed = 1;
nodes = (
(329,691,l),
(100,691,l),
(89,582,l),
(329,578,l)
);
}
);
width = 646;
},
{
layerId = "1AEC2AE6-7FD3-416F-AB62-5405269463F6";
shapes = (
{
closed = 1;
nodes = (
(482,612,l),
(434,488,l),
(453,480,l),
(501,604,l)
);
},
{
closed = 1;
nodes = (
(407,411,l),
(347,251,l),
(366,243,l),
(426,403,l)
);
},
{
closed = 1;
nodes = (
(330,198,l),
(270,38,l),
(289,30,l),
(349,190,l)
);
},
{
closed = 1;
nodes = (
(530,645,l),
(339,647,l),
(337,627,l),
(528,625,l)
);
},
{
closed = 1;
nodes = (
(284,646,l),
(141,646,l),
(139,626,l),
(284,624,l)
);
}
);
width = 646;
},
{
layerId = "B466964A-22F3-4054-88BE-B6989E35C817";
shapes = (
{
closed = 1;
nodes = (
(404,402,l),
(399,389,l),
(418,381,l),
(422,394,l)
);
},
{
closed = 1;
nodes = (
(407,411,l),
(347,251,l),
(366,243,l),
(426,403,l)
);
},
{
closed = 1;
nodes = (
(355,271,l),
(351,262,l),
(370,254,l),
(374,263,l)
);
},
{
closed = 1;
nodes = (
(276,646,l),
(259,646,l),
(257,626,l),
(274,626,l)
);
},
{
closed = 1;
nodes = (
(284,646,l),
(141,646,l),
(139,626,l),
(284,624,l)
);
}
);
width = 646;
}
);
note = seven;
unicode = 55;
},
{
glyphname = eight;
layers = (
{
layerId = m01;
shapes = (
{
closed = 1;
nodes = (
(548,311,l),
(388,411,l),
(330,316,l),
(488,217,l)
);
},
{
closed = 1;
nodes = (
(438,410,l),
(249,416,l),
(247,305,l),
(433,298,l)
);
},
{
closed = 1;
nodes = (
(434,99,l),
(215,106,l),
(213,-5,l),
(429,-13,l)
);
},
{
closed = 1;
nodes = (
(577,119,l),
(550,306,l),
(440,289,l),
(466,104,l)
);
},
{
closed = 1;
nodes = (
(441,-15,l),
(567,125,l),
(484,198,l),
(359,60,l)
);
},
{
closed = 1;
nodes = (
(316,316,l),
(258,411,l),
(98,311,l),
(158,217,l)
);
},
{
closed = 1;
nodes = (
(206,297,l),
(96,315,l),
(69,127,l),
(180,113,l)
);
},
{
closed = 1;
nodes = (
(162,207,l),
(79,134,l),
(205,-6,l),
(287,69,l)
);
},
{
closed = 1;
nodes = (
(550,573,l),
(414,675,l),
(348,586,l),
(482,484,l)
);
},
{
closed = 1;
nodes = (
(423,688,l),
(234,694,l),
(232,583,l),
(418,576,l)
);
},
{
closed = 1;
nodes = (
(536,418,l),
(542,585,l),
(431,588,l),
(425,423,l)
);
},
{
closed = 1;
nodes = (
(408,295,l),
(534,435,l),
(451,508,l),
(326,370,l)
);
},
{
closed = 1;
nodes = (
(297,583,l),
(239,678,l),
(101,591,l),
(161,497,l)
);
},
{
closed = 1;
nodes = (
(219,582,l),
(108,581,l),
(105,454,l),
(217,459,l)
);
},
{
closed = 1;
nodes = (
(182,514,l),
(99,441,l),
(225,301,l),
(307,376,l)
);
}
);
width = 646;
},
{
layerId = "A1660191-6A08-4E85-BAD2-45B604C2F82B";
shapes = (
{
closed = 1;
nodes = (
(408,391,l),
(387,405,l),
(315,328,l),
(325,307,l)
);
},
{
closed = 1;
nodes = (
(421,409,l),
(231,417,l),
(231,304,l),
(416,299,l)
);
},
{
closed = 1;
nodes = (
(464,120,l),
(442,122,l),
(442,4,l),
(459,14,l)
);
},
{
closed = 1;
nodes = (
(536,117,l),
(531,144,l),
(426,124,l),
(419,101,l)
);
},
{
closed = 1;
nodes = (
(442,-14,l),
(566,124,l),
(486,199,l),
(358,59,l)
);
},
{
closed = 1;
nodes = (
(176,211,l),
(118,305,l),
(100,294,l),
(164,198,l)
);
},
{
closed = 1;
nodes = (
(206,298,l),
(96,314,l),
(69,128,l),
(181,112,l)
);
},
{
closed = 1;
nodes = (
(92,211,l),
(81,197,l),
(156,135,l),
(175,152,l)
);
},
{
closed = 1;
nodes = (
(529,561,l),
(516,574,l),
(453,484,l),
(458,469,l)
);
},
{
closed = 1;
nodes = (
(238,651,l),
(225,661,l),
(220,545,l),
(228,548,l)
);
},
{
closed = 1;
nodes = (
(537,418,l),
(541,584,l),
(430,589,l),
(426,423,l)
);
},
{
closed = 1;
nodes = (
(460,428,l),
(531,499,l),
(523,511,l),
(445,442,l)
);
},
{
closed = 1;
nodes = (
(298,583,l),
(238,678,l),
(100,590,l),
(162,498,l)
);
},
{
closed = 1;
nodes = (
(177,628,l),
(167,623,l),
(167,526,l),
(191,531,l)
);
},
{
closed = 1;
nodes = (
(180,515,l),
(100,440,l),
(224,302,l),
(308,375,l)
);
}
);
width = 646;
},
{
layerId = "1AEC2AE6-7FD3-416F-AB62-5405269463F6";
shapes = (
{
closed = 1;
nodes = (
(486,297,l),
(403,349,l),
(392,331,l),
(474,279,l)
);
},
{
closed = 1;
nodes = (
(374,366,l),
(276,370,l),
(276,348,l),
(373,345,l)
);
},
{
closed = 1;
nodes = (
(387,55,l),
(259,60,l),
(259,38,l),
(386,34,l)
);
},
{
closed = 1;
nodes = (
(526,158,l),
(512,255,l),
(491,251,l),
(504,155,l)
);
},
{
closed = 1;
nodes = (
(438,49,l),
(503,121,l),
(488,135,l),
(422,63,l)
);
},
{
closed = 1;
nodes = (
(254,331,l),
(243,349,l),
(160,297,l),
(172,279,l)
);
},
{
closed = 1;
nodes = (
(155,260,l),
(134,263,l),
(120,166,l),
(142,163,l)
);
},
{
closed = 1;
nodes = (
(158,144,l),
(143,130,l),
(208,58,l),
(224,72,l)
);
},
{
closed = 1;
nodes = (
(487,564,l),
(423,612,l),
(411,595,l),
(474,547,l)
);
},
{
closed = 1;
nodes = (
(376,644,l),
(278,648,l),
(278,626,l),
(375,623,l)
);
},
{
closed = 1;
nodes = (
(493,465,l),
(495,541,l),
(474,542,l),
(472,466,l)
);
},
{
closed = 1;
nodes = (
(405,359,l),
(470,431,l),
(455,445,l),
(389,373,l)
);
},
{
closed = 1;
nodes = (
(236,597,l),
(224,616,l),
(163,577,l),
(175,559,l)
);
},
{
closed = 1;
nodes = (
(173,537,l),
(152,536,l),
(151,501,l),
(173,502,l)
);
},
{
closed = 1;
nodes = (
(178,451,l),
(163,437,l),
(228,365,l),
(244,379,l)
);
}
);
width = 646;
},
{
layerId = "B466964A-22F3-4054-88BE-B6989E35C817";
shapes = (
{
closed = 1;
nodes = (
(368,360,l),
(364,365,l),
(351,351,l),
(354,346,l)
);
},
{
closed = 1;
nodes = (
(374,366,l),
(276,370,l),
(276,348,l),
(373,345,l)
);
},
{
closed = 1;
nodes = (
(443,76,l),
(434,76,l),
(434,54,l),
(442,55,l)
);
},
{
closed = 1;
nodes = (
(493,115,l),
(492,124,l),
(471,120,l),
(471,112,l)
);
},
{
closed = 1;
nodes = (
(438,49,l),
(503,121,l),
(488,135,l),
(422,63,l)
);
},
{
closed = 1;
nodes = (
(152,243,l),
(141,261,l),
(133,258,l),
(145,240,l)
);
},
{
closed = 1;
nodes = (
(155,260,l),
(134,263,l),
(120,166,l),
(142,163,l)
);
},
{
closed = 1;
nodes = (
(138,189,l),
(123,175,l),
(129,170,l),
(145,184,l)
);
},
{
closed = 1;
nodes = (
(495,534,l),
(488,541,l),
(476,524,l),
(482,517,l)
);
},
{
closed = 1;
nodes = (
(222,608,l),
(214,609,l),
(213,589,l),
(220,589,l)
);
},
{
closed = 1;
nodes = (
(493,465,l),
(495,541,l),
(474,542,l),
(472,466,l)
);
},
{
closed = 1;
nodes = (
(486,474,l),
(493,481,l),
(483,498,l),
(475,491,l)
);
},
{
closed = 1;
nodes = (
(236,597,l),
(224,616,l),
(163,577,l),
(175,559,l)
);
},
{
closed = 1;
nodes = (
(190,581,l),
(169,580,l),
(169,573,l),
(191,574,l)
);
},
{
closed = 1;
nodes = (
(178,451,l),
(163,437,l),
(228,365,l),
(244,379,l)
);
}
);
width = 646;
}
);
note = eight;
unicode = 56;
},
{
glyphname = nine;
layers = (
{
layerId = m01;
shapes = (
{
closed = 1;
nodes = (
(406,685,l),
(217,691,l),
(215,580,l),
(401,573,l)
);
},
{
closed = 1;
nodes = (
(533,584,l),
(382,697,l),
(316,607,l),
(465,495,l)
);
},
{
closed = 1;
nodes = (
(570,394,l),
(527,578,l),
(418,551,l),
(460,370,l)
);
},
{
closed = 1;
nodes = (
(559,207,l),
(565,396,l),
(453,398,l),
(446,212,l)
);
},
{
closed = 1;
nodes = (
(467,37,l),
(570,221,l),
(470,270,l),
(368,89,l)
);
},
{
closed = 1;
nodes = (
(236,-23,l),
(452,13,l),
(425,121,l),
(212,86,l)
);
},
{
closed = 1;
nodes = (
(72,103,l),
(223,-12,l),
(288,78,l),
(140,191,l)
);
},
{
closed = 1;
nodes = (
(210,691,l),
(84,550,l),
(167,478,l),
(293,616,l)
);
},
{
closed = 1;
nodes = (
(88,545,l),
(81,318,l),
(190,316,l),
(199,541,l)
);
},
{
closed = 1;
nodes = (
(88,341,l),
(228,215,l),
(300,298,l),
(163,424,l)
);
},
{
closed = 1;
nodes = (
(417,237,l),
(542,378,l),
(459,448,l),
(333,311,l)
);
},
{
closed = 1;
nodes = (
(401,346,l),
(214,319,l),
(232,209,l),
(416,235,l)
);
}
);
width = 646;
},
{
layerId = "A1660191-6A08-4E85-BAD2-45B604C2F82B";
shapes = (
{
closed = 1;
nodes = (
(401,678,l),
(380,690,l),
(380,562,l),
(396,561,l)
);
},
{
closed = 1;
nodes = (
(535,583,l),
(380,698,l),
(318,606,l),
(463,496,l)
);
},
{
closed = 1;
nodes = (
(516,578,l),
(512,599,l),
(402,574,l),
(406,553,l)
);
},
{
closed = 1;
nodes = (
(558,207,l),
(566,397,l),
(452,397,l),
(447,212,l)
);
},
{
closed = 1;
nodes = (
(526,216,l),
(547,229,l),
(462,268,l),
(458,252,l)
);
},
{
closed = 1;
nodes = (
(211,13,l),
(232,17,l),
(201,126,l),
(185,120,l)
);
},
{
closed = 1;
nodes = (
(72,102,l),
(224,-12,l),
(288,79,l),
(139,191,l)
);
},
{
closed = 1;
nodes = (
(209,690,l),
(84,550,l),
(167,478,l),
(293,617,l)
);
},
{
closed = 1;
nodes = (
(109,572,l),
(111,551,l),
(222,551,l),
(220,572,l)
);
},
{
closed = 1;
nodes = (
(239,232,l),
(268,226,l),
(334,302,l),
(319,323,l)
);
},
{
closed = 1;
nodes = (
(393,243,l),
(399,272,l),
(324,337,l),
(300,324,l)
);
},
{
closed = 1;
nodes = (
(400,346,l),
(215,319,l),
(231,209,l),
(416,234,l)
);
}
);
width = 646;
},
{
layerId = "1AEC2AE6-7FD3-416F-AB62-5405269463F6";
shapes = (
{
closed = 1;
nodes = (
(359,641,l),
(261,645,l),
(261,623,l),
(358,620,l)
);
},
{
closed = 1;
nodes = (
(470,575,l),
(391,634,l),
(379,616,l),
(456,558,l)
);
},
{
closed = 1;
nodes = (
(516,428,l),
(494,523,l),
(472,518,l),
(494,423,l)
);
},
{
closed = 1;
nodes = (
(515,254,l),
(519,352,l),
(496,352,l),
(493,255,l)
);
},
{
closed = 1;
nodes = (
(449,97,l),
(508,202,l),
(488,211,l),
(430,107,l)
);
},
{
closed = 1;
nodes = (
(271,28,l),
(397,49,l),
(391,70,l),
(266,49,l)
);
},
{
closed = 1;
nodes = (
(135,111,l),
(214,52,l),
(226,69,l),
(148,128,l)
);
},
{
closed = 1;
nodes = (
(213,627,l),
(148,554,l),
(163,541,l),
(229,613,l)
);
},
{
closed = 1;
nodes = (
(132,498,l),
(127,362,l),
(147,362,l),
(152,498,l)
);
},
{
closed = 1;
nodes = (
(152,344,l),
(224,279,l),
(237,294,l),
(166,360,l)
);
},
{
closed = 1;
nodes = (
(413,300,l),
(478,373,l),
(463,386,l),
(397,314,l)
);
},
{
closed = 1;
nodes = (
(362,295,l),
(266,281,l),
(269,260,l),
(365,273,l)
);
}
);
width = 646;
},
{
layerId = "B466964A-22F3-4054-88BE-B6989E35C817";
shapes = (
{
closed = 1;
nodes = (
(398,627,l),
(391,631,l),
(391,609,l),
(397,606,l)
);
},
{
closed = 1;
nodes = (
(470,575,l),
(391,634,l),
(379,616,l),
(456,558,l)
);
},
{
closed = 1;
nodes = (
(467,572,l),
(465,578,l),
(443,573,l),
(445,567,l)
);
},
{
closed = 1;
nodes = (
(515,254,l),
(519,352,l),
(496,352,l),
(493,255,l)
);
},
{
closed = 1;
nodes = (
(510,259,l),
(515,264,l),
(495,273,l),
(495,267,l)
);
},
{
closed = 1;
nodes = (
(208,56,l),
(216,58,l),
(210,79,l),
(203,77,l)
);
},
{
closed = 1;
nodes = (
(135,111,l),
(214,52,l),
(226,69,l),
(148,128,l)
);
},
{
closed = 1;
nodes = (
(213,627,l),
(148,554,l),
(163,541,l),
(229,613,l)
);
},
{
closed = 1;
nodes = (
(152,558,l),
(153,552,l),
(173,552,l),
(172,558,l)
);
},
{
closed = 1;
nodes = (
(270,267,l),
(276,263,l),
(289,278,l),
(284,283,l)
);
},
{
closed = 1;
nodes = (
(357,272,l),
(360,277,l),
(345,290,l),
(341,286,l)
);
},
{
closed = 1;
nodes = (
(362,295,l),
(266,281,l),
(269,260,l),
(365,273,l)
);
}
);
width = 646;
}
);
note = nine;
unicode = 57;
},
